<svg xmlns="http://www.w3.org/2000/svg" xmlns:xlink="http://www.w3.org/1999/xlink" width="36" height="36" viewBox="0 0 36 36">
  <defs>
    <clipPath id="clip-path">
      <rect id="Rectangle_24" data-name="Rectangle 24" width="36" height="36"/>
    </clipPath>
  </defs>
  <g id="automation" transform="translate(-320 -320)">
    <g id="Group_8" data-name="Group 8" transform="translate(320 320)">
      <g id="Group_6" data-name="Group 6" transform="translate(0 0)" clip-path="url(#clip-path)">
        <path id="Path_16" data-name="Path 16" d="M320.048,452.927a.594.594,0,0,0,.467.534l2.072.447a9.414,9.414,0,0,0,.278,1.042L321.3,456.37a.6.6,0,0,0-.137.7,11.883,11.883,0,0,0,.949,1.656.6.6,0,0,0,.671.228l2.013-.649a9.433,9.433,0,0,0,.767.767l-.649,2.013a.6.6,0,0,0,.228.671,11.867,11.867,0,0,0,1.656.949.6.6,0,0,0,.7-.137L328.913,461a9.576,9.576,0,0,0,1.042.278l.447,2.072a.6.6,0,0,0,.533.467c.316.025.633.048.956.048s.64-.022.956-.048a.594.594,0,0,0,.534-.467l.447-2.072A9.433,9.433,0,0,0,334.87,461l1.421,1.568a.594.594,0,0,0,.7.137,11.973,11.973,0,0,0,1.655-.949.594.594,0,0,0,.228-.671l-.649-2.013a9.617,9.617,0,0,0,.767-.766l2.014.649a.594.594,0,0,0,.671-.228,11.886,11.886,0,0,0,.949-1.655.594.594,0,0,0-.137-.7l-1.568-1.421a9.657,9.657,0,0,0,.278-1.042l2.072-.447a.6.6,0,0,0,.468-.533c.024-.317.047-.634.047-.956s-.022-.64-.048-.956a.594.594,0,0,0-.467-.534l-2.072-.447a9.427,9.427,0,0,0-.278-1.042l1.568-1.421a.6.6,0,0,0,.137-.7,11.977,11.977,0,0,0-.949-1.656.593.593,0,0,0-.671-.228l-2.013.649a9.517,9.517,0,0,0-.767-.767l.649-2.014a.6.6,0,0,0-.228-.671,11.877,11.877,0,0,0-1.656-.949.593.593,0,0,0-.7.137l-1.421,1.568a9.647,9.647,0,0,0-1.042-.278l-.447-2.072a.6.6,0,0,0-.533-.467,12.076,12.076,0,0,0-1.912,0,.6.6,0,0,0-.534.467l-.447,2.072a9.424,9.424,0,0,0-1.041.278l-1.421-1.568a.594.594,0,0,0-.7-.137,11.9,11.9,0,0,0-1.655.949.6.6,0,0,0-.228.671l.649,2.014a9.587,9.587,0,0,0-.767.767l-2.013-.649a.593.593,0,0,0-.671.228,11.893,11.893,0,0,0-.949,1.656.6.6,0,0,0,.137.7l1.568,1.421a9.559,9.559,0,0,0-.278,1.042l-2.072.447a.6.6,0,0,0-.467.533c-.025.317-.048.634-.048.956s.022.64.047.956Zm1.154-1.378,2.023-.437a.6.6,0,0,0,.461-.486,8.287,8.287,0,0,1,.427-1.6.594.594,0,0,0-.157-.651l-1.527-1.384c.133-.255.272-.5.416-.731l1.959.631a.6.6,0,0,0,.643-.189,8.356,8.356,0,0,1,1.176-1.176.594.594,0,0,0,.189-.643l-.631-1.959q.347-.217.731-.416l1.384,1.528a.6.6,0,0,0,.651.157,8.246,8.246,0,0,1,1.6-.428.594.594,0,0,0,.486-.461l.436-2.022a7.768,7.768,0,0,1,.844,0l.437,2.022a.594.594,0,0,0,.486.461,8.286,8.286,0,0,1,1.6.428.594.594,0,0,0,.651-.157l1.384-1.527c.255.133.5.272.731.416l-.631,1.96a.6.6,0,0,0,.189.643,8.383,8.383,0,0,1,1.176,1.176.592.592,0,0,0,.643.189l1.959-.631q.217.347.416.73l-1.528,1.384a.594.594,0,0,0-.157.651,8.238,8.238,0,0,1,.428,1.6.594.594,0,0,0,.461.486l2.022.436c.008.14.013.281.013.422s0,.283-.012.422l-2.023.437a.6.6,0,0,0-.461.486,8.283,8.283,0,0,1-.427,1.6.594.594,0,0,0,.157.651l1.527,1.384c-.133.255-.272.5-.416.731l-1.959-.631a.592.592,0,0,0-.643.189,8.4,8.4,0,0,1-1.176,1.176.594.594,0,0,0-.189.642l.631,1.96q-.347.217-.73.416l-1.384-1.528a.6.6,0,0,0-.652-.157,8.245,8.245,0,0,1-1.6.427.6.6,0,0,0-.485.461l-.437,2.023a7.886,7.886,0,0,1-.843,0l-.437-2.023a.6.6,0,0,0-.486-.461,8.273,8.273,0,0,1-1.6-.427.593.593,0,0,0-.651.157l-1.384,1.527c-.255-.133-.5-.272-.731-.416l.631-1.959a.6.6,0,0,0-.189-.643,8.355,8.355,0,0,1-1.176-1.176.594.594,0,0,0-.643-.189l-1.96.632q-.217-.347-.416-.731l1.528-1.384a.6.6,0,0,0,.157-.651,8.238,8.238,0,0,1-.427-1.6.6.6,0,0,0-.461-.486l-2.024-.435c-.007-.14-.012-.281-.012-.422s0-.283.013-.421Zm0,0" transform="translate(-320.001 -428.19)" fill="#54585f"/>
      </g>
      <g id="Group_7" data-name="Group 7" transform="translate(0 0)" clip-path="url(#clip-path)">
        <path id="Path_17" data-name="Path 17" d="M507.806,328.465a.594.594,0,0,0,.412-.5,7,7,0,0,0,.052-.83,7.083,7.083,0,0,0-.052-.83.594.594,0,0,0-.412-.5l-1.649-.518c-.05-.135-.1-.267-.164-.4l.8-1.531a.6.6,0,0,0-.061-.644,7.2,7.2,0,0,0-1.176-1.176.6.6,0,0,0-.644-.062l-1.532.8q-.195-.089-.4-.164l-.518-1.648a.594.594,0,0,0-.5-.412,6.548,6.548,0,0,0-1.66,0,.594.594,0,0,0-.5.412l-.518,1.648c-.135.05-.268.1-.4.164l-1.531-.8a.6.6,0,0,0-.644.061,7.213,7.213,0,0,0-1.177,1.176.6.6,0,0,0-.061.644l.8,1.531c-.06.13-.114.262-.164.4l-1.648.518a.594.594,0,0,0-.412.5,6.67,6.67,0,0,0,0,1.66.594.594,0,0,0,.412.5l1.648.518c.05.135.1.267.164.4l-.8,1.531a.6.6,0,0,0,.061.644,7.2,7.2,0,0,0,1.176,1.176.6.6,0,0,0,.644.062l1.531-.8c.13.059.262.114.4.163l.518,1.648a.594.594,0,0,0,.5.412,6.657,6.657,0,0,0,1.661,0,.594.594,0,0,0,.5-.412l.518-1.648c.135-.05.267-.1.4-.164l1.531.8a.594.594,0,0,0,.644-.061,7.191,7.191,0,0,0,1.176-1.176.6.6,0,0,0,.062-.644l-.8-1.531q.09-.194.164-.4Zm-2.295-.526a.6.6,0,0,0-.391.4,4.21,4.21,0,0,1-.317.769.593.593,0,0,0,0,.557l.754,1.446a5.985,5.985,0,0,1-.446.446l-1.446-.754a.6.6,0,0,0-.557,0,4.2,4.2,0,0,1-.769.317.6.6,0,0,0-.4.391l-.49,1.56a4.963,4.963,0,0,1-.626,0l-.49-1.56a.6.6,0,0,0-.4-.391,4.159,4.159,0,0,1-.769-.317.594.594,0,0,0-.557,0l-1.446.754a5.991,5.991,0,0,1-.446-.446l.754-1.446a.594.594,0,0,0,0-.557,4.206,4.206,0,0,1-.317-.769.6.6,0,0,0-.391-.4l-1.56-.49c-.007-.109-.01-.212-.01-.313s0-.2.01-.313l1.56-.49a.6.6,0,0,0,.391-.4,4.157,4.157,0,0,1,.317-.769.594.594,0,0,0,0-.557l-.754-1.446a5.991,5.991,0,0,1,.446-.446l1.446.754a.6.6,0,0,0,.557,0,4.2,4.2,0,0,1,.769-.317.6.6,0,0,0,.4-.391l.49-1.56a4.963,4.963,0,0,1,.626,0l.49,1.56a.6.6,0,0,0,.4.391,4.159,4.159,0,0,1,.769.317.594.594,0,0,0,.557,0l1.446-.754a5.979,5.979,0,0,1,.446.446l-.754,1.446a.594.594,0,0,0,0,.557,4.21,4.21,0,0,1,.317.769.6.6,0,0,0,.391.4l1.56.49c.007.109.01.212.01.313s0,.2-.01.313Zm0,0" transform="translate(-476.761 -320.002)" fill="#54585f"/>
      </g>
    </g>
    <path id="Path_18" data-name="Path 18" d="M571.451,474.738l-1.021-.363a4.888,4.888,0,0,0-.2-.486l.464-.978a.592.592,0,0,0-.069-.62,5.967,5.967,0,0,0-1.022-1.023.6.6,0,0,0-.621-.069l-.979.465a4.8,4.8,0,0,0-.485-.2l-.363-1.021a.6.6,0,0,0-.489-.391,5.493,5.493,0,0,0-1.443,0,.6.6,0,0,0-.489.391l-.363,1.021a4.727,4.727,0,0,0-.486.2l-.978-.465a.594.594,0,0,0-.62.069,5.97,5.97,0,0,0-1.023,1.022.6.6,0,0,0-.069.621l.465.978a4.785,4.785,0,0,0-.2.485l-1.021.363a.6.6,0,0,0-.391.488,5.862,5.862,0,0,0-.048.721,5.957,5.957,0,0,0,.048.721.594.594,0,0,0,.391.489l1.021.363a4.906,4.906,0,0,0,.2.486l-.464.978a.592.592,0,0,0,.069.621,5.982,5.982,0,0,0,1.022,1.023.6.6,0,0,0,.621.069l.979-.465a4.714,4.714,0,0,0,.485.2l.363,1.021a.6.6,0,0,0,.489.391,5.725,5.725,0,0,0,.721.049,5.956,5.956,0,0,0,.721-.048.594.594,0,0,0,.489-.391l.363-1.021a4.906,4.906,0,0,0,.486-.2l.978.465a.591.591,0,0,0,.621-.069,5.982,5.982,0,0,0,1.023-1.022.6.6,0,0,0,.069-.621l-.464-.978a4.731,4.731,0,0,0,.2-.485l1.021-.363a.6.6,0,0,0,.391-.489,5.727,5.727,0,0,0,.049-.721,5.97,5.97,0,0,0-.048-.721.594.594,0,0,0-.391-.489Zm-.756,1.427-.943.334a.6.6,0,0,0-.374.4,3.527,3.527,0,0,1-.33.8.6.6,0,0,0-.019.548l.427.9c-.1.108-.2.212-.31.31l-.9-.427a.6.6,0,0,0-.547.02,3.54,3.54,0,0,1-.8.33.6.6,0,0,0-.4.374l-.335.942a4.068,4.068,0,0,1-.434,0l-.335-.942a.594.594,0,0,0-.4-.374,3.54,3.54,0,0,1-.8-.33.6.6,0,0,0-.547-.02l-.9.427q-.163-.148-.31-.31l.427-.9a.6.6,0,0,0-.019-.548,3.53,3.53,0,0,1-.33-.8.6.6,0,0,0-.374-.4l-.943-.334c0-.072-.007-.144-.007-.217s0-.146.006-.217l.943-.335a.593.593,0,0,0,.374-.4,3.547,3.547,0,0,1,.331-.8.6.6,0,0,0,.019-.547l-.427-.9c.1-.108.2-.212.31-.31l.9.427a.592.592,0,0,0,.547-.019,3.524,3.524,0,0,1,.8-.33.6.6,0,0,0,.4-.374l.335-.942a4,4,0,0,1,.434,0l.335.942a.6.6,0,0,0,.4.374,3.54,3.54,0,0,1,.8.33.592.592,0,0,0,.547.019l.9-.427q.163.148.31.31l-.427.9a.594.594,0,0,0,.019.547,3.523,3.523,0,0,1,.33.8.6.6,0,0,0,.374.4l.943.335c0,.072.007.144.007.217s0,.145-.006.217Zm0,0" transform="translate(-216.219 -135.141)" fill="#54585f"/>
    <path id="Path_19" data-name="Path 19" d="M380.54,507.079a6.54,6.54,0,1,0-6.54-6.54,6.547,6.547,0,0,0,6.54,6.54Zm0-11.89a5.351,5.351,0,1,1-5.351,5.351,5.357,5.357,0,0,1,5.351-5.351Zm0,0" transform="translate(-48.649 -156.759)" fill="#54585f"/>
    <path id="Path_20" data-name="Path 20" d="M320.133,394.931l.913.762a14.24,14.24,0,0,1,10.964-5.137c.3,0,.6.017.906.036l-.732.732.841.841,1.784-1.784a.593.593,0,0,0,0-.841l-1.784-1.784-.841.841.808.808c-.327-.021-.654-.039-.982-.039a15.426,15.426,0,0,0-11.877,5.564Zm0,0" transform="translate(-0.12 -61.044)" fill="#54585f"/>
    <path id="Path_21" data-name="Path 21" d="M538.973,362a2.973,2.973,0,1,0,2.973,2.973A2.976,2.976,0,0,0,538.973,362Zm0,4.756a1.784,1.784,0,1,1,1.784-1.784,1.785,1.785,0,0,1-1.784,1.784Zm0,0" transform="translate(-194.597 -37.838)" fill="#54585f"/>
    <path id="Path_22" data-name="Path 22" d="M598.378,506a2.378,2.378,0,1,0,2.378,2.378A2.381,2.381,0,0,0,598.378,506Zm0,3.567a1.189,1.189,0,1,1,1.189-1.189,1.19,1.19,0,0,1-1.189,1.189Zm0,0" transform="translate(-248.652 -167.57)" fill="#54585f"/>
    <path id="Path_23" data-name="Path 23" d="M636.38,332.607l-2.973-.595a.593.593,0,0,0-.7.466l-.595,2.973,1.166.234.32-1.6a8.915,8.915,0,0,1,.881,3.861,8.823,8.823,0,0,1-1.956,5.574l.928.744a10.116,10.116,0,0,0,1.173-10.8l1.522.3Zm0,0" transform="translate(-281.187 -10.811)" fill="#54585f"/>
  </g>
</svg>
