<?xml version="1.0" encoding="utf-8"?>
<!-- Generator: Adobe Illustrator 16.0.0, SVG Export Plug-In . SVG Version: 6.00 Build 0)  -->
<!DOCTYPE svg PUBLIC "-//W3C//DTD SVG 1.1//EN" "http://www.w3.org/Graphics/SVG/1.1/DTD/svg11.dtd">
<svg version="1.1" id="Layer_1" xmlns="http://www.w3.org/2000/svg" xmlns:xlink="http://www.w3.org/1999/xlink" x="0px" y="0px"
	 width="1000px" height="1000px" viewBox="0 0 1000 1000" enable-background="new 0 0 1000 1000" xml:space="preserve">
<g>
	<g>
		<defs>
			<rect id="SVGID_1_" x="320" y="320" width="360" height="360"/>
		</defs>
		<clipPath id="SVGID_2_">
			<use xlink:href="#SVGID_1_"  overflow="visible"/>
		</clipPath>
		<path clip-path="url(#SVGID_2_)" fill="#54585F" d="M320.48,569.648c0.211,2.641,2.125,4.828,4.715,5.387l20.91,4.512
			c0.739,3.566,1.676,7.082,2.809,10.512l-15.828,14.34c-1.961,1.777-2.527,4.633-1.387,7.027
			c2.895,6.086,6.113,11.707,9.578,16.711c1.5,2.172,4.246,3.105,6.774,2.297l20.32-6.547c2.43,2.727,5.016,5.313,7.742,7.742
			l-6.547,20.32c-0.808,2.516,0.122,5.27,2.297,6.773c5.004,3.465,10.625,6.684,16.711,9.578c2.399,1.141,5.25,0.57,7.028-1.387
			l14.339-15.828c3.438,1.129,6.954,2.07,10.516,2.809l4.512,20.91c0.558,2.586,2.75,4.5,5.383,4.715
			c3.191,0.254,6.39,0.48,9.648,0.48s6.457-0.227,9.648-0.48c2.641-0.211,4.829-2.125,5.387-4.715l4.512-20.91
			c3.566-0.738,7.086-1.676,10.519-2.809l14.34,15.828c1.782,1.961,4.637,2.531,7.028,1.387c6.082-2.895,11.703-6.121,16.707-9.578
			c2.18-1.504,3.109-4.258,2.301-6.773l-6.547-20.32c2.723-2.43,5.309-5.016,7.738-7.734l20.324,6.547
			c2.512,0.816,5.266-0.121,6.773-2.301c3.461-5.004,6.684-10.625,9.574-16.707c1.141-2.395,0.578-5.25-1.383-7.027l-15.828-14.34
			c1.125-3.438,2.066-6.953,2.805-10.52l20.91-4.512c2.586-0.559,4.5-2.746,4.719-5.383c0.246-3.195,0.473-6.395,0.473-9.652
			s-0.227-6.457-0.48-9.648c-0.211-2.641-2.125-4.828-4.715-5.387l-20.91-4.512c-0.738-3.566-1.676-7.086-2.809-10.52l15.828-14.34
			c1.961-1.777,2.527-4.633,1.387-7.027c-2.895-6.082-6.121-11.704-9.578-16.708c-1.504-2.179-4.258-3.117-6.773-2.3l-20.32,6.546
			c-2.43-2.722-5.016-5.308-7.742-7.738l6.547-20.324c0.809-2.512-0.122-5.266-2.297-6.773c-5.004-3.461-10.625-6.684-16.711-9.575
			c-2.399-1.148-5.25-0.578-7.028,1.383l-14.339,15.828c-3.438-1.125-6.954-2.066-10.516-2.804l-4.512-20.911
			c-0.558-2.586-2.75-4.5-5.383-4.718c-6.39-0.516-12.914-0.504-19.3,0c-2.641,0.211-4.832,2.125-5.391,4.718l-4.512,20.911
			c-3.562,0.738-7.078,1.671-10.511,2.804l-14.34-15.828c-1.778-1.961-4.625-2.523-7.028-1.383
			c-6.082,2.891-11.703,6.114-16.707,9.575c-2.179,1.507-3.109,4.261-2.3,6.773l6.546,20.324c-2.722,2.43-5.308,5.016-7.738,7.738
			l-20.316-6.546c-2.52-0.817-5.274,0.121-6.774,2.3c-3.465,5.004-6.683,10.625-9.578,16.708c-1.14,2.395-0.574,5.25,1.387,7.027
			l15.828,14.34c-1.129,3.438-2.07,6.953-2.809,10.52l-20.91,4.512c-2.586,0.559-4.5,2.746-4.715,5.383
			c-0.253,3.195-0.48,6.395-0.48,9.652S320.227,566.457,320.48,569.648L320.48,569.648z M332.125,555.746l20.414-4.41
			c2.41-0.524,4.258-2.465,4.656-4.902c0.899-5.531,2.352-10.961,4.313-16.145c0.875-2.305,0.246-4.914-1.582-6.57l-15.414-13.969
			c1.343-2.574,2.746-5.039,4.199-7.375l19.773,6.371c2.34,0.75,4.922,0,6.489-1.906c3.539-4.332,7.535-8.32,11.867-11.867
			c1.906-1.563,2.672-4.133,1.906-6.489l-6.371-19.773c2.336-1.457,4.797-2.863,7.375-4.199l13.969,15.418
			c1.66,1.832,4.277,2.461,6.574,1.586c5.172-1.965,10.602-3.414,16.141-4.317c2.437-0.395,4.378-2.242,4.902-4.656l4.402-20.41
			c2.828-0.153,5.703-0.156,8.516,0l4.41,20.41c0.524,2.414,2.465,4.262,4.902,4.656c5.532,0.903,10.961,2.352,16.145,4.317
			c2.293,0.875,4.91,0.25,6.57-1.586l13.969-15.414c2.574,1.343,5.039,2.75,7.375,4.199l-6.371,19.777
			c-0.758,2.352,0,4.918,1.906,6.485c4.332,3.543,8.32,7.539,11.867,11.871c1.566,1.914,4.141,2.676,6.488,1.906l19.773-6.371
			c1.457,2.332,2.863,4.793,4.199,7.367l-15.418,13.969c-1.832,1.656-2.461,4.266-1.586,6.574
			c1.965,5.172,3.414,10.602,4.316,16.141c0.395,2.438,2.242,4.378,4.656,4.902l20.41,4.402c0.078,1.41,0.133,2.832,0.133,4.262
			s-0.047,2.852-0.125,4.254l-20.414,4.41c-2.41,0.523-4.258,2.465-4.656,4.902c-0.898,5.531-2.352,10.961-4.313,16.145
			c-0.875,2.305-0.246,4.914,1.582,6.57l15.414,13.969c-1.344,2.574-2.746,5.039-4.199,7.375l-19.773-6.371
			c-2.359-0.77-4.922-0.008-6.488,1.906c-3.535,4.32-7.531,8.316-11.867,11.867c-1.906,1.563-2.664,4.133-1.906,6.48l6.371,19.777
			c-2.336,1.457-4.797,2.859-7.367,4.199l-13.969-15.423c-1.656-1.827-4.266-2.444-6.578-1.581
			c-5.172,1.961-10.602,3.414-16.141,4.313c-2.433,0.398-4.379,2.246-4.898,4.656l-4.406,20.414c-2.825,0.148-5.7,0.156-8.512,0
			l-4.41-20.414c-0.524-2.41-2.469-4.258-4.903-4.656c-5.535-0.898-10.964-2.352-16.148-4.313c-2.297-0.875-4.914-0.254-6.57,1.581
			l-13.965,15.415c-2.574-1.344-5.043-2.746-7.375-4.199l6.371-19.773c0.758-2.355,0-4.922-1.906-6.488
			c-4.332-3.539-8.325-7.535-11.871-11.867c-1.567-1.914-4.145-2.672-6.485-1.91l-19.777,6.375c-1.457-2.336-2.86-4.797-4.199-7.375
			l15.422-13.969c1.828-1.656,2.457-4.266,1.582-6.574c-1.961-5.172-3.415-10.602-4.313-16.141
			c-0.398-2.438-2.246-4.379-4.656-4.902l-20.426-4.391c-0.07-1.41-0.125-2.832-0.125-4.262S332.047,557.148,332.125,555.746
			L332.125,555.746z M332.125,555.746"/>
		<path clip-path="url(#SVGID_2_)" fill="#54585F" d="M633.313,405.41c2.258-0.707,3.891-2.683,4.16-5.035
			c0.359-3.027,0.527-5.77,0.527-8.375s-0.168-5.348-0.523-8.375c-0.27-2.352-1.902-4.328-4.156-5.035l-16.637-5.227
			c-0.5-1.359-1.051-2.699-1.656-4.008l8.063-15.449c1.094-2.094,0.852-4.636-0.613-6.5c-3.473-4.39-7.469-8.386-11.871-11.871
			c-1.863-1.473-4.406-1.707-6.5-0.621l-15.461,8.066c-1.309-0.601-2.648-1.152-4.008-1.652l-5.227-16.637
			c-0.707-2.253-2.684-3.886-5.035-4.156c-6.07-0.711-10.684-0.711-16.758,0c-2.352,0.27-4.324,1.903-5.031,4.156l-5.227,16.637
			c-1.363,0.5-2.703,1.051-4.008,1.656l-15.453-8.062c-2.094-1.086-4.629-0.852-6.496,0.613c-4.391,3.473-8.387,7.469-11.875,11.871
			c-1.469,1.864-1.711,4.398-0.617,6.5l8.059,15.449c-0.602,1.309-1.152,2.649-1.652,4.008l-16.636,5.227
			c-2.254,0.707-3.887,2.683-4.157,5.035c-0.355,3.027-0.523,5.77-0.523,8.375s0.168,5.348,0.523,8.375
			c0.27,2.352,1.903,4.328,4.157,5.035l16.636,5.227c0.5,1.359,1.051,2.699,1.656,4.008l-8.063,15.449
			c-1.094,2.094-0.852,4.636,0.613,6.5c3.473,4.39,7.469,8.386,11.871,11.871c1.855,1.473,4.406,1.707,6.5,0.621l15.449-8.059
			c1.309,0.598,2.645,1.153,4.008,1.649l5.227,16.636c0.707,2.258,2.684,3.891,5.035,4.161c3.039,0.359,5.781,0.527,8.387,0.527
			s5.348-0.168,8.375-0.523c2.352-0.27,4.328-1.903,5.035-4.157l5.227-16.636c1.359-0.5,2.699-1.051,4.008-1.657l15.449,8.063
			c2.094,1.094,4.637,0.859,6.5-0.613c4.391-3.473,8.387-7.469,11.871-11.872c1.473-1.863,1.711-4.398,0.621-6.5l-8.066-15.449
			c0.605-1.308,1.16-2.645,1.656-4.008L633.313,405.41z M610.152,400.105c-1.895,0.602-3.371,2.094-3.945,4.004
			c-0.816,2.711-1.898,5.321-3.203,7.762c-0.945,1.754-0.961,3.859-0.039,5.617l7.613,14.59c-1.422,1.578-2.926,3.086-4.5,4.5
			l-14.59-7.613c-1.766-0.922-3.871-0.899-5.617,0.039c-2.441,1.305-5.051,2.387-7.762,3.203c-1.902,0.57-3.402,2.051-4.004,3.945
			l-4.945,15.746c-2.188,0.133-4.125,0.133-6.32,0l-4.945-15.746c-0.602-1.894-2.094-3.371-4.004-3.945
			c-2.715-0.816-5.328-1.898-7.758-3.203c-1.75-0.945-3.855-0.961-5.621-0.039l-14.59,7.613c-1.578-1.422-3.086-2.926-4.5-4.5
			l7.613-14.59c0.918-1.758,0.906-3.871-0.039-5.617c-1.305-2.441-2.387-5.051-3.203-7.762c-0.57-1.902-2.051-3.402-3.945-4.004
			l-15.746-4.945c-0.07-1.098-0.102-2.144-0.102-3.16s0.031-2.062,0.102-3.16l15.746-4.945c1.895-0.602,3.371-2.094,3.945-4.004
			c0.816-2.715,1.898-5.329,3.203-7.758c0.945-1.75,0.961-3.856,0.039-5.621l-7.613-14.59c1.422-1.578,2.926-3.086,4.5-4.5
			l14.59,7.613c1.758,0.918,3.871,0.899,5.617-0.039c2.441-1.305,5.051-2.387,7.762-3.203c1.902-0.57,3.402-2.051,4.004-3.945
			l4.945-15.746c2.188-0.133,4.125-0.133,6.32,0l4.945,15.746c0.602,1.894,2.094,3.371,4.004,3.945
			c2.715,0.816,5.328,1.898,7.758,3.203c1.75,0.945,3.855,0.961,5.621,0.039l14.59-7.613c1.578,1.422,3.086,2.926,4.5,4.5
			l-7.613,14.59c-0.918,1.758-0.906,3.871,0.039,5.617c1.305,2.441,2.387,5.051,3.203,7.762c0.57,1.902,2.051,3.402,3.945,4.004
			l15.746,4.945c0.07,1.098,0.102,2.144,0.102,3.16s-0.031,2.062-0.102,3.16L610.152,400.105z M610.152,400.105"/>
	</g>
	<path fill="#54585F" d="M675.57,517.785l-10.305-3.66c-0.59-1.676-1.262-3.313-2.023-4.902l4.688-9.871
		c0.977-2.051,0.707-4.477-0.699-6.262c-3-3.836-6.465-7.309-10.313-10.32c-1.793-1.407-4.23-1.668-6.27-0.7l-9.875,4.688
		c-1.586-0.754-3.223-1.434-4.898-2.016l-3.664-10.308c-0.762-2.141-2.676-3.672-4.934-3.95c-5.344-0.64-9.215-0.64-14.563,0
		c-2.254,0.274-4.168,1.801-4.93,3.95l-3.66,10.308c-1.676,0.586-3.313,1.262-4.902,2.024l-9.871-4.688
		c-2.039-0.973-4.469-0.703-6.262,0.695c-3.836,3-7.309,6.469-10.32,10.317c-1.398,1.785-1.668,4.215-0.699,6.269l4.688,9.875
		c-0.754,1.582-1.434,3.223-2.016,4.895l-10.309,3.668c-2.141,0.762-3.672,2.676-3.949,4.93C560.156,525.387,560,527.77,560,530
		s0.156,4.609,0.48,7.277c0.27,2.258,1.801,4.172,3.949,4.934l10.305,3.66c0.59,1.672,1.262,3.313,2.023,4.902l-4.688,9.867
		c-0.977,2.055-0.707,4.477,0.699,6.266c3,3.832,6.465,7.309,10.313,10.32c1.789,1.398,4.223,1.668,6.27,0.695l9.875-4.688
		c1.586,0.758,3.223,1.438,4.898,2.02l3.664,10.305c0.762,2.145,2.676,3.672,4.934,3.949C615.391,589.844,617.77,590,620,590
		s4.609-0.156,7.277-0.48c2.258-0.27,4.172-1.801,4.934-3.949l3.66-10.305c1.672-0.59,3.313-1.262,4.902-2.023l9.867,4.688
		c2.047,0.977,4.484,0.711,6.266-0.699c3.832-3,7.309-6.465,10.32-10.313c1.398-1.789,1.668-4.219,0.695-6.27l-4.688-9.875
		c0.758-1.586,1.438-3.223,2.02-4.898l10.305-3.664c2.145-0.762,3.672-2.676,3.949-4.934C679.844,534.609,680,532.23,680,530
		s-0.156-4.609-0.48-7.277C679.25,520.461,677.719,518.551,675.57,517.785L675.57,517.785z M667.941,532.191l-9.512,3.375
		c-1.84,0.656-3.25,2.168-3.773,4.051c-0.785,2.852-1.91,5.57-3.332,8.082c-0.957,1.699-1.031,3.762-0.195,5.527l4.309,9.078
		c-0.996,1.09-2.043,2.137-3.129,3.125l-9.078-4.309c-1.75-0.832-3.82-0.762-5.523,0.199c-2.52,1.426-5.238,2.543-8.078,3.328
		c-1.883,0.523-3.395,1.934-4.055,3.777l-3.379,9.508c-1.453,0.078-2.926,0.078-4.379,0l-3.379-9.508
		c-0.652-1.844-2.164-3.254-4.051-3.777c-2.848-0.785-5.566-1.906-8.082-3.328c-1.695-0.953-3.754-1.027-5.523-0.199l-9.078,4.309
		c-1.094-0.996-2.137-2.039-3.129-3.125l4.309-9.078c0.84-1.766,0.762-3.828-0.195-5.527c-1.43-2.52-2.547-5.238-3.332-8.074
		c-0.52-1.887-1.93-3.398-3.773-4.059l-9.512-3.375c-0.047-0.727-0.07-1.453-0.07-2.191s0.023-1.469,0.059-2.191l9.512-3.383
		c1.84-0.652,3.25-2.164,3.77-4.051c0.789-2.855,1.914-5.566,3.336-8.082c0.957-1.695,1.031-3.762,0.195-5.523l-4.309-9.079
		c0.996-1.093,2.043-2.136,3.129-3.129l9.078,4.309c1.762,0.84,3.828,0.77,5.523-0.195c2.52-1.43,5.238-2.547,8.078-3.332
		c1.883-0.524,3.395-1.934,4.055-3.774l3.379-9.511c1.453-0.079,2.926-0.079,4.379,0l3.379,9.511c0.652,1.84,2.164,3.25,4.051,3.774
		c2.848,0.785,5.566,1.91,8.082,3.332c1.703,0.965,3.762,1.035,5.523,0.195l9.078-4.309c1.094,0.997,2.137,2.043,3.129,3.129
		l-4.309,9.079c-0.84,1.762-0.762,3.828,0.195,5.523c1.43,2.519,2.547,5.238,3.332,8.078c0.52,1.883,1.93,3.395,3.773,4.055
		l9.512,3.379c0.047,0.73,0.07,1.457,0.07,2.195S667.977,531.465,667.941,532.191L667.941,532.191z M667.941,532.191"/>
	<path fill="#54585F" d="M440,626c36.391,0,66-29.609,66-66s-29.609-66-66-66s-66,29.609-66,66S403.609,626,440,626L440,626z
		 M440,506c29.773,0,54,24.227,54,54s-24.227,54-54,54s-54-24.227-54-54S410.227,506,440,506L440,506z M440,506"/>
	<path fill="#54585F" d="M320.133,460.152l9.215,7.688C356.82,434.895,397.148,416,440,416c3.055,0,6.102,0.176,9.148,0.367
		l-7.39,7.391l8.484,8.484l18-18c2.348-2.347,2.348-6.137,0-8.484l-18-18l-8.484,8.484l8.152,8.153
		c-3.297-0.207-6.605-0.395-9.91-0.395C393.586,404,349.891,424.465,320.133,460.152L320.133,460.152z M320.133,460.152"/>
	<path fill="#54585F" d="M566,362c-16.543,0-30,13.457-30,30s13.457,30,30,30s30-13.457,30-30S582.543,362,566,362L566,362z
		 M566,410c-9.926,0-18-8.074-18-18s8.074-18,18-18s18,8.074,18,18S575.926,410,566,410L566,410z M566,410"/>
	<path fill="#54585F" d="M620,506c-13.234,0-24,10.766-24,24s10.766,24,24,24s24-10.766,24-24S633.234,506,620,506L620,506z
		 M620,542c-6.617,0-12-5.383-12-12s5.383-12,12-12s12,5.383,12,12S626.617,542,620,542L620,542z M620,542"/>
	<path fill="#54585F" d="M675.176,338.121l-30-6c-3.266-0.66-6.414,1.457-7.063,4.703l-6,30l11.766,2.36l3.234-16.153
		C652.93,365.125,656,378.457,656,392c0,20.688-6.828,40.141-19.738,56.25l9.363,7.508C660.055,437.75,668,415.113,668,392
		c0-15.715-3.629-31.207-10.535-45.188l15.359,3.075L675.176,338.121z M675.176,338.121"/>
</g>
</svg>
