<?xml version="1.0" encoding="utf-8"?>
<!-- Generator: Adobe Illustrator 16.0.0, SVG Export Plug-In . SVG Version: 6.00 Build 0)  -->
<!DOCTYPE svg PUBLIC "-//W3C//DTD SVG 1.1//EN" "http://www.w3.org/Graphics/SVG/1.1/DTD/svg11.dtd">
<svg version="1.1" id="Layer_1" xmlns="http://www.w3.org/2000/svg" xmlns:xlink="http://www.w3.org/1999/xlink" x="0px" y="0px"
	 width="1000px" height="1000px" viewBox="0 0 1000 1000" enable-background="new 0 0 1000 1000" xml:space="preserve">
<g>
	<path fill="#54585F" d="M534.609,554.75c23.215-9.785,41.535-23.105,54.961-39.965c13.43-16.856,20.145-35.211,20.145-55.07
		c0-19.856-6.715-38.211-20.145-55.071c-13.426-16.859-31.746-30.179-54.961-39.968C511.395,354.89,486.145,350,458.859,350
		c-27.285,0-52.535,4.894-75.754,14.679c-23.21,9.786-41.535,23.11-54.96,39.965C314.715,421.504,308,439.855,308,459.715
		c0,17,5.078,33.007,15.219,48.003c10.14,15,24.07,27.645,41.785,37.93c-1.43,3.434-2.895,6.57-4.395,9.434
		c-1.5,2.855-3.285,5.602-5.355,8.246c-2.074,2.648-3.68,4.719-4.824,6.211c-1.141,1.5-3,3.609-5.571,6.324
		c-2.574,2.715-4.218,4.5-4.929,5.355c0-0.145-0.285,0.18-0.856,0.965c-0.574,0.785-0.894,1.141-0.969,1.074
		c-0.07-0.079-0.355,0.277-0.855,1.066c-0.5,0.785-0.75,1.176-0.75,1.176l-0.539,1.07c-0.211,0.426-0.356,0.852-0.426,1.285
		c-0.074,0.426-0.109,0.891-0.109,1.391s0.07,0.961,0.215,1.391c0.289,1.855,1.109,3.352,2.464,4.5
		c1.36,1.141,2.821,1.711,4.395,1.711h0.645c7.14-1,13.285-2.141,18.425-3.43c22-5.715,41.86-14.855,59.575-27.426
		c12.855,2.285,25.429,3.426,37.714,3.426C486.145,569.429,511.395,564.539,534.609,554.75L534.609,554.75z M414.719,536.863
		l-9.43,6.637c-4.004,2.715-8.43,5.504-13.285,8.363l7.5-18.004l-20.785-12c-13.719-7.996-24.36-17.426-31.93-28.285
		c-7.574-10.855-11.359-22.141-11.359-33.859c0-14.571,5.613-28.215,16.824-40.93s26.32-22.785,45.32-30.215
		c19-7.43,39.43-11.144,61.285-11.144c21.856,0,42.29,3.714,61.286,11.144c19,7.43,34.109,17.5,45.324,30.215
		s16.82,26.355,16.82,40.93c0,14.574-5.605,28.214-16.82,40.929c-11.215,12.719-26.324,22.784-45.324,30.215
		C501.148,538.289,480.719,542,458.859,542c-10.711,0-21.64-1-32.785-3L414.719,536.863z M414.719,536.863"/>
	<path fill="#54585F" d="M676.785,562.672C686.93,547.738,692,531.707,692,514.563c0-17.57-5.359-34-16.07-49.285
		c-10.715-15.281-25.289-28-43.715-38.14c3.281,10.71,4.926,21.57,4.926,32.57c0,19.14-4.781,37.285-14.359,54.43
		c-9.57,17.141-23.285,32.281-41.141,45.426c-16.574,12-35.43,21.215-56.574,27.645c-21.141,6.426-43.211,9.641-66.214,9.641
		c-4.282,0-10.571-0.281-18.856-0.852c28.715,18.852,62.43,28.285,101.145,28.285c12.285,0,24.855-1.145,37.715-3.43
		c17.715,12.574,37.574,21.715,59.57,27.43c5.145,1.289,11.289,2.43,18.43,3.43c1.715,0.145,3.289-0.359,4.719-1.496
		c1.426-1.148,2.355-2.715,2.781-4.711c-0.066-0.859,0-1.328,0.219-1.398c0.211-0.066,0.172-0.535-0.109-1.391
		s-0.426-1.286-0.426-1.286l-0.535-1.069c-0.148-0.281-0.391-0.676-0.75-1.176c-0.355-0.496-0.641-0.855-0.859-1.07
		c-0.207-0.215-0.527-0.574-0.961-1.07c-0.426-0.496-0.711-0.82-0.855-0.961c-0.715-0.859-2.355-2.645-4.926-5.359
		c-2.574-2.711-4.43-4.816-5.574-6.316c-1.141-1.5-2.75-3.57-4.82-6.219c-2.07-2.641-3.855-5.391-5.359-8.25
		c-1.496-2.855-2.961-6-4.391-9.426C652.715,590.219,666.648,577.609,676.785,562.672L676.785,562.672z M676.785,562.672"/>
</g>
</svg>
