<svg xmlns="http://www.w3.org/2000/svg" width="36.012" height="28.298" viewBox="0 0 36.012 28.298">
  <g id="chat" transform="translate(-308 -350)">
    <path id="Path_24" data-name="Path 24" d="M329.252,369.2a12.756,12.756,0,0,0,5.154-3.748,8,8,0,0,0,0-10.329,12.762,12.762,0,0,0-5.154-3.748,19.021,19.021,0,0,0-14.208,0,12.765,12.765,0,0,0-5.154,3.748A8.115,8.115,0,0,0,308,360.289a7.9,7.9,0,0,0,1.427,4.5,11.739,11.739,0,0,0,3.919,3.557c-.134.322-.271.616-.412.885a5.111,5.111,0,0,1-.5.773q-.292.372-.452.582t-.522.593q-.362.382-.462.5c0-.014-.027.017-.08.091s-.084.107-.091.1-.033.026-.08.1l-.07.11-.051.1a.425.425,0,0,0-.04.12.767.767,0,0,0-.01.13.4.4,0,0,0,.02.13.668.668,0,0,0,.231.422.629.629,0,0,0,.412.16h.061a16.063,16.063,0,0,0,7.315-2.894,20.191,20.191,0,0,0,3.537.321,18.075,18.075,0,0,0,7.1-1.376Zm-11.244-1.677-.884.622q-.563.382-1.246.784l.7-1.689-1.949-1.125a9.234,9.234,0,0,1-2.994-2.653,5.474,5.474,0,0,1-1.065-3.175,5.713,5.713,0,0,1,1.578-3.839,10.768,10.768,0,0,1,4.25-2.834,16.326,16.326,0,0,1,11.5,0,10.771,10.771,0,0,1,4.251,2.834,5.459,5.459,0,0,1,0,7.677,10.769,10.769,0,0,1-4.251,2.834,15.639,15.639,0,0,1-5.748,1.045,17.388,17.388,0,0,1-3.075-.281Zm0,0" fill="#54585f"/>
    <path id="Path_25" data-name="Path 25" d="M462.2,439.849a7.844,7.844,0,0,0-.08-9.134,11.911,11.911,0,0,0-4.1-3.577,10.341,10.341,0,0,1-.885,8.159,13.449,13.449,0,0,1-3.858,4.26,17.8,17.8,0,0,1-5.306,2.593,21.234,21.234,0,0,1-6.21.9q-.6,0-1.768-.08a16.889,16.889,0,0,0,9.486,2.653,20.2,20.2,0,0,0,3.537-.322,16.054,16.054,0,0,0,7.315,2.894.608.608,0,0,0,.443-.14.746.746,0,0,0,.261-.442c-.006-.081,0-.125.021-.131s.016-.05-.01-.13l-.04-.121-.05-.1a.994.994,0,0,0-.07-.11.832.832,0,0,0-.081-.1c-.019-.02-.049-.054-.09-.1s-.067-.077-.08-.09q-.1-.121-.462-.5t-.523-.592q-.161-.211-.452-.583a5.108,5.108,0,0,1-.5-.774q-.21-.4-.412-.884a11.8,11.8,0,0,0,3.918-3.549Zm0,0" transform="translate(-119.618 -69.904)" fill="#54585f"/>
  </g>
</svg>
