<?xml version="1.0" encoding="utf-8"?>
<!-- Generator: Adobe Illustrator 16.0.0, SVG Export Plug-In . SVG Version: 6.00 Build 0)  -->
<!DOCTYPE svg PUBLIC "-//W3C//DTD SVG 1.1//EN" "http://www.w3.org/Graphics/SVG/1.1/DTD/svg11.dtd">
<svg version="1.1" id="Layer_1" xmlns="http://www.w3.org/2000/svg" xmlns:xlink="http://www.w3.org/1999/xlink" x="0px" y="0px"
	 width="1000px" height="1000px" viewBox="0 0 1000 1000" enable-background="new 0 0 1000 1000" xml:space="preserve">
<g>
	<path fill="#54585F" d="M499.121,308C427.922,308,370,365.922,370,437.121c0,44.988,23.586,86.82,61.836,110.219l4.133,30.472
		c1.953,14.423,13.898,25.302,27.785,25.302h70.734c13.887,0,25.832-10.879,27.785-25.302l4.129-30.472
		c38.254-23.398,61.84-65.235,61.84-110.219C628.242,365.922,570.32,308,499.121,308L499.121,308z M554.086,534.438
		c-2.359,1.34-3.961,3.703-4.324,6.391l-4.695,34.652c-0.781,5.754-5.426,10.266-10.578,10.266h-70.734
		c-5.153,0-9.797-4.512-10.578-10.266l-4.696-34.652c-0.363-2.688-1.964-5.055-4.324-6.391
		c-35.027-19.828-56.789-57.122-56.789-97.316c0-61.621,50.133-111.754,111.754-111.754S610.875,375.5,610.875,437.121
		C610.875,477.32,589.113,514.609,554.086,534.438L554.086,534.438z M554.086,534.438"/>
	<path fill="#54585F" d="M544.598,612.957h-90.957c-4.793,0-8.684,3.887-8.684,8.684c0,4.793,3.891,8.684,8.684,8.684h90.957
		c4.797,0,8.684-3.891,8.684-8.684C553.281,616.844,549.395,612.957,544.598,612.957L544.598,612.957z M544.598,612.957"/>
	<path fill="#54585F" d="M533.586,640.168h-68.934c-4.793,0-8.683,3.887-8.683,8.684c0,23.793,19.359,43.148,43.152,43.148
		s43.148-19.355,43.148-43.148C542.27,644.055,538.383,640.168,533.586,640.168L533.586,640.168z M499.121,674.633
		c-11.172,0-20.707-7.141-24.277-17.098h48.554C519.828,667.492,510.293,674.633,499.121,674.633L499.121,674.633z M499.121,674.633
		"/>
	<path fill="#54585F" d="M554.156,442.199c0-0.16,0-0.32-0.012-0.48c-0.008-0.121-0.02-0.242-0.031-0.364
		c-0.016-0.156-0.031-0.312-0.055-0.464c-0.02-0.133-0.051-0.266-0.074-0.395c-0.031-0.141-0.059-0.277-0.094-0.414
		c-0.035-0.144-0.078-0.289-0.125-0.434c-0.039-0.121-0.074-0.242-0.117-0.359c-0.051-0.148-0.113-0.293-0.172-0.437
		c-0.051-0.118-0.098-0.231-0.152-0.344c-0.063-0.137-0.133-0.266-0.203-0.399c-0.07-0.125-0.137-0.246-0.207-0.367
		c-0.07-0.113-0.145-0.226-0.219-0.336c-0.09-0.136-0.18-0.265-0.277-0.395c-0.035-0.047-0.063-0.094-0.098-0.141
		c-0.043-0.051-0.086-0.098-0.129-0.148c-0.105-0.129-0.219-0.258-0.332-0.383c-0.082-0.09-0.168-0.176-0.254-0.262
		c-0.113-0.113-0.23-0.223-0.348-0.332c-0.098-0.086-0.195-0.172-0.297-0.254c-0.117-0.094-0.234-0.183-0.355-0.269
		c-0.113-0.086-0.227-0.164-0.34-0.243c-0.117-0.074-0.238-0.148-0.355-0.218c-0.129-0.078-0.258-0.149-0.387-0.219
		c-0.117-0.059-0.234-0.117-0.355-0.172c-0.145-0.07-0.285-0.133-0.434-0.191c-0.113-0.047-0.23-0.09-0.352-0.133
		c-0.156-0.055-0.313-0.106-0.469-0.152c-0.066-0.02-0.129-0.043-0.191-0.063c-0.059-0.016-0.117-0.02-0.172-0.035
		c-0.152-0.039-0.305-0.07-0.461-0.098c-0.137-0.027-0.273-0.051-0.41-0.07c-0.133-0.02-0.266-0.031-0.398-0.043
		c-0.156-0.016-0.309-0.031-0.465-0.035c-0.117-0.004-0.238-0.004-0.355-0.004c-0.164,0-0.328,0-0.492,0.008
		c-0.117,0.007-0.234,0.023-0.352,0.031c-0.16,0.016-0.316,0.035-0.477,0.059c-0.125,0.019-0.254,0.046-0.383,0.074
		c-0.141,0.027-0.285,0.054-0.426,0.09c-0.141,0.035-0.277,0.082-0.418,0.121c-0.125,0.039-0.254,0.078-0.375,0.125
		c-0.145,0.05-0.281,0.109-0.422,0.168c-0.121,0.05-0.242,0.101-0.359,0.156c-0.133,0.062-0.262,0.133-0.387,0.199
		c-0.129,0.07-0.254,0.137-0.379,0.215c-0.109,0.066-0.219,0.137-0.328,0.211c-0.137,0.09-0.27,0.184-0.402,0.281
		c-0.043,0.035-0.094,0.063-0.137,0.098l-17.828,13.953l-17.832-13.953c-3.141-2.461-7.559-2.461-10.703,0l-17.825,13.949
		l-17.828-13.949c-0.043-0.035-0.09-0.067-0.136-0.098c-0.129-0.097-0.262-0.191-0.399-0.281c-0.109-0.074-0.223-0.149-0.336-0.215
		c-0.121-0.074-0.242-0.141-0.367-0.207c-0.129-0.07-0.262-0.141-0.395-0.203c-0.113-0.055-0.23-0.106-0.347-0.152
		c-0.145-0.063-0.289-0.122-0.434-0.176c-0.121-0.043-0.242-0.078-0.363-0.117c-0.145-0.043-0.285-0.09-0.43-0.125
		c-0.136-0.036-0.277-0.063-0.414-0.09c-0.133-0.028-0.262-0.055-0.394-0.074c-0.157-0.028-0.313-0.04-0.465-0.055
		c-0.121-0.012-0.242-0.028-0.363-0.035c-0.161-0.008-0.321-0.008-0.485-0.008c-0.121,0-0.242,0-0.363,0.004
		c-0.152,0.004-0.305,0.019-0.457,0.031c-0.137,0.012-0.27,0.027-0.406,0.047c-0.133,0.019-0.27,0.043-0.407,0.066
		c-0.152,0.032-0.308,0.063-0.461,0.102c-0.054,0.012-0.113,0.019-0.171,0.035c-0.067,0.016-0.125,0.043-0.192,0.063
		c-0.156,0.043-0.312,0.093-0.469,0.148c-0.121,0.043-0.238,0.086-0.355,0.137c-0.145,0.058-0.285,0.121-0.43,0.187
		c-0.117,0.055-0.238,0.113-0.355,0.176c-0.129,0.066-0.258,0.141-0.383,0.215c-0.121,0.074-0.242,0.144-0.359,0.222
		c-0.114,0.079-0.227,0.157-0.34,0.239c-0.121,0.09-0.239,0.179-0.352,0.273c-0.101,0.082-0.203,0.168-0.301,0.258
		c-0.117,0.105-0.23,0.211-0.343,0.324c-0.086,0.086-0.172,0.176-0.258,0.27c-0.113,0.121-0.223,0.246-0.324,0.375
		c-0.043,0.051-0.09,0.097-0.133,0.152c-0.035,0.043-0.067,0.094-0.102,0.141c-0.094,0.125-0.183,0.258-0.269,0.386
		c-0.078,0.114-0.153,0.231-0.223,0.344c-0.07,0.117-0.137,0.238-0.203,0.36c-0.07,0.132-0.145,0.269-0.207,0.406
		c-0.055,0.109-0.102,0.222-0.149,0.336c-0.062,0.148-0.125,0.293-0.175,0.441c-0.043,0.117-0.078,0.238-0.118,0.36
		c-0.046,0.144-0.089,0.289-0.128,0.437c-0.036,0.133-0.059,0.27-0.09,0.406c-0.024,0.133-0.055,0.266-0.075,0.399
		c-0.023,0.152-0.039,0.308-0.054,0.465c-0.012,0.121-0.028,0.242-0.031,0.363c-0.012,0.16-0.012,0.32-0.012,0.48
		c0,0.121,0,0.243,0.004,0.364c0.004,0.152,0.019,0.308,0.035,0.461c0.012,0.136,0.023,0.269,0.043,0.402
		c0.019,0.137,0.043,0.273,0.07,0.41c0.028,0.152,0.059,0.305,0.098,0.457c0.012,0.059,0.019,0.117,0.035,0.172l33.422,124.996
		c1.035,3.883,4.547,6.441,8.383,6.441c0.742,0,1.496-0.094,2.246-0.297c4.633-1.238,7.387-6,6.148-10.633l-26.715-99.91
		l2.735,2.136c1.57,1.231,3.461,1.848,5.351,1.848c1.887,0,3.778-0.617,5.352-1.848l17.824-13.949l17.832,13.949
		c3.141,2.461,7.559,2.461,10.703,0l2.734-2.136l-26.715,99.914c-1.239,4.629,1.511,9.391,6.145,10.629
		c0.754,0.203,1.508,0.297,2.25,0.297c3.836,0,7.344-2.559,8.383-6.441l33.418-124.992c0.016-0.059,0.023-0.117,0.039-0.172
		c0.035-0.156,0.07-0.309,0.098-0.465c0.027-0.133,0.051-0.269,0.07-0.406c0.02-0.133,0.031-0.266,0.043-0.402
		c0.016-0.157,0.027-0.309,0.035-0.461C554.156,442.441,554.156,442.32,554.156,442.199L554.156,442.199z M554.156,442.199"/>
</g>
</svg>
