<svg xmlns="http://www.w3.org/2000/svg" width="36.661" height="54.514" viewBox="0 0 36.661 54.514">
  <g id="idea_1_" data-name="idea (1)" transform="translate(-370 -308)">
    <path id="Path_1" data-name="Path 1" d="M388.331,308a18.332,18.332,0,0,0-9.552,33.978l.587,4.326a4.071,4.071,0,0,0,3.944,3.592h10.042A4.071,4.071,0,0,0,397.3,346.3l.586-4.326A18.332,18.332,0,0,0,388.331,308Zm7.8,32.146a1.234,1.234,0,0,0-.614.907l-.667,4.919a1.622,1.622,0,0,1-1.5,1.457H383.31a1.622,1.622,0,0,1-1.5-1.457l-.667-4.919a1.233,1.233,0,0,0-.614-.907,15.865,15.865,0,1,1,15.606,0Zm0,0" fill="#54585f"/>
    <path id="Path_2" data-name="Path 2" d="M459.1,612.957H446.19a1.233,1.233,0,1,0,0,2.466H459.1a1.233,1.233,0,1,0,0-2.466Zm0,0" transform="translate(-64.316 -261.664)" fill="#54585f"/>
    <path id="Path_3" data-name="Path 3" d="M466.988,640.168H457.2a1.233,1.233,0,0,0-1.233,1.233,6.126,6.126,0,0,0,12.251,0,1.232,1.232,0,0,0-1.233-1.233Zm-4.893,4.893a3.666,3.666,0,0,1-3.446-2.427h6.893a3.666,3.666,0,0,1-3.446,2.427Zm0,0" transform="translate(-73.765 -285.012)" fill="#54585f"/>
    <path id="Path_4" data-name="Path 4" d="M459.711,434.766c0-.023,0-.045,0-.068s0-.034,0-.052,0-.044-.008-.066-.007-.038-.011-.056-.008-.039-.013-.059-.011-.041-.018-.062-.01-.034-.017-.051-.016-.042-.024-.062-.014-.033-.022-.049-.019-.038-.029-.057l-.029-.052-.031-.048c-.013-.019-.026-.038-.039-.056l-.014-.02-.018-.021c-.015-.018-.031-.037-.047-.054l-.036-.037-.049-.047-.042-.036-.05-.038-.048-.035-.05-.031-.055-.031-.05-.024c-.021-.01-.04-.019-.062-.027l-.05-.019-.067-.022-.027-.009-.024,0-.065-.014-.058-.01-.057-.006c-.022,0-.044,0-.066,0h-.12l-.05,0-.068.008-.054.01-.06.013-.059.017-.053.018c-.021.007-.04.015-.06.024l-.051.022-.055.028-.054.031-.047.03-.057.04-.019.014-2.531,1.981-2.531-1.981a1.232,1.232,0,0,0-1.519,0l-2.53,1.98-2.531-1.98-.019-.014-.057-.04-.048-.031-.052-.029-.056-.029-.049-.022-.062-.025-.052-.017c-.021-.006-.04-.013-.061-.018l-.059-.013-.056-.01c-.022,0-.044-.006-.066-.008l-.052,0h-.12l-.065,0-.058.007-.058.009-.065.014-.024,0-.027.009-.067.021-.05.019-.061.027-.05.025-.054.031-.051.031-.048.034-.05.039-.043.037-.049.046-.037.038c-.016.017-.032.035-.046.053l-.019.022-.014.02c-.013.018-.026.037-.038.055l-.032.049c-.01.017-.019.034-.029.051s-.021.038-.029.058-.014.032-.021.048-.018.042-.025.063-.011.034-.017.051-.013.041-.018.062-.008.038-.013.058-.008.038-.011.057-.006.044-.008.066,0,.034,0,.052,0,.045,0,.068,0,.035,0,.052,0,.044,0,.065,0,.038.006.057.006.039.01.058.008.043.014.065,0,.017,0,.024l4.745,17.745a1.232,1.232,0,0,0,1.19.914,1.219,1.219,0,0,0,.319-.042,1.233,1.233,0,0,0,.873-1.509l-3.793-14.184.388.3a1.231,1.231,0,0,0,1.519,0l2.53-1.98,2.531,1.98a1.232,1.232,0,0,0,1.519,0l.388-.3L452.544,452.2a1.233,1.233,0,0,0,2.382.637l4.744-17.744c0-.008,0-.017.006-.024s.01-.044.014-.066.007-.038.01-.058,0-.038.006-.057,0-.044,0-.065,0-.034,0-.051Zm0,0" transform="translate(-63.568 -107.715)" fill="#54585f"/>
  </g>
</svg>
