<?xml version="1.0" encoding="utf-8"?>
<!-- Generator: Adobe Illustrator 16.0.0, SVG Export Plug-In . SVG Version: 6.00 Build 0)  -->
<!DOCTYPE svg PUBLIC "-//W3C//DTD SVG 1.1//EN" "http://www.w3.org/Graphics/SVG/1.1/DTD/svg11.dtd">
<svg version="1.1" id="Layer_1" xmlns="http://www.w3.org/2000/svg" xmlns:xlink="http://www.w3.org/1999/xlink" x="0px" y="0px"
	 width="1000px" height="1000px" viewBox="0 0 1000 1000" enable-background="new 0 0 1000 1000" xml:space="preserve">
<line fill="none" stroke="#FFFFFF" stroke-width="3" stroke-miterlimit="10" x1="477.5" y1="287" x2="477.5" y2="669"/>
<g>
	<defs>
		<rect id="SVGID_1_" x="94.756" y="287.327" width="338.788" height="382.978"/>
	</defs>
	<clipPath id="SVGID_2_">
		<use xlink:href="#SVGID_1_"  overflow="visible"/>
	</clipPath>
	<path clip-path="url(#SVGID_2_)" fill="#FFFFFF" d="M333.534,534.587l-13.071,10.771l6.505,16.732l0.232-0.136l0.036-0.005
		l0.217-0.123l0.06-0.034l0.162-0.119v-0.017l0.231-0.116l0.01-0.024l0.232-0.106l0.03-0.051l0.171-0.08l0.01-0.046l0.157-0.09
		l0.045-0.031l0.202-0.111l0.03-0.04l0.202-0.097l0.01-0.06l0.222-0.051l-0.01-0.075l0.231-0.04l0.126-0.075l0.036-0.173l0.04-0.003
		l0.222-0.127l0.212-0.021l0.122-0.101l0.061-0.046l0.081-0.117l0.162-0.055l0.162-0.111l-0.091-0.035l0.211-0.069l0.026-0.066
		l0.085-0.101l0.091,0.04l0.081-0.085l0.061-0.056l0.187-0.201l0.035-0.036l0.126-0.105l0.065-0.01l0.157-0.218h0.004l0.208-0.155
		h0.005l0.207-0.156l0.211-0.151l0.212-0.151l0.211-0.156l0.207-0.152l0.212-0.156l0.202-0.151l0.212-0.152l0.201-0.15l0.202-0.166
		l0.212-0.155l0.212-0.151l0.201-0.157l0.202-0.162l0.212-0.16l0,0l0.202-0.156h0.01l0.201-0.158l0.202-0.16l0.212-0.161
		l0.197-0.161l0.207-0.162l0.197-0.161l0.206-0.172l0.208-0.155l0.202-0.161l0.202-0.162l0.201-0.167l0.197-0.166l0.202-0.16
		l0.201-0.163l0.192-0.166l0.212-0.172l0.191-0.155l0.201-0.172l0.192-0.168l0.201-0.17l0.202-0.161l0.198-0.177l0.196-0.172
		l0.196-0.166l0.197-0.172l0,0l-0.01-0.021v-0.009L333.534,534.587z M370.074,512.11l0.162-0.353l0.162-0.367l0.161-0.363
		l0.162-0.363l0.151-0.363l0.161-0.367l0.151-0.357l0.152-0.374l0.156-0.362l0.157-0.363l0.141-0.37l0.157-0.372l0.146-0.364
		l0.152-0.362l0.141-0.374l0.141-0.378l0.141-0.367l0.141-0.373l0.142-0.373l0.141-0.374l0.136-0.372l0.136-0.373l0.137-0.374
		l0.135-0.378l0.131-0.374l0.132-0.372l0.131-0.379l0.131-0.384l0.126-0.367l0.126-0.378l0.126-0.384l0.125-0.382l0.126-0.378
		l0.127-0.378l0.11-0.389l0.122-0.378l0.121-0.378l0.111-0.387l0.121-0.39l0.116-0.382l0.106-0.383l0.11-0.389l0.111-0.378
		l0.111-0.389l0.101-0.388l0.116-0.389l0.106-0.393l0.096-0.384l0.105-0.393l0.101-0.384v-0.008l0.101-0.389l0.095-0.382v-0.006
		l0.096-0.388l0.096-0.397l0.096-0.39v-0.004l0.091-0.388l0.091-0.393l0.091-0.393l0.09-0.395l0.091-0.397l0.081-0.394v-0.01
		l0.085-0.393l0.086-0.393l0.081-0.395V487.8c-5.588-14.352-12.174-31.207-17.701-45.048v0.021c0.141,0.376,0.212,1.208,0.323,1.583
		c0.483,1.569,0.483,2.699,0.766,4.303l0.016,0.448l0.02,0.146c0.262,1.528,0.449,3.088,0.63,4.685l0.061,0.671l0.01,0.117
		l0.071,0.781l0.009,0.051v0.106l0.031,0.256l0.01,0.198l0.01,0.021l0.01,0.119v0.04l0.01,0.157l0.004,0.03l0.01,0.13l0.01,0.112
		v0.045l0.021,0.237l0.015,0.191v0.057l0.01,0.156v0.041v0.041l0.03,0.408v0.026l0.01,0.131l0.01,0.11v0.056l0.01,0.157v0.029
		l0.01,0.131l0.01,0.112v0.055l0.01,0.162v0.029v0.005l0.01,0.233v0.063l0.01,0.157v0.031l0.01,0.142v0.1l0.015,0.152v0.075v0.021
		l0.005,0.147l0.009,0.105l0.005,0.223v0.024l0.01,0.146v0.102l0.005,0.065l0.01,0.167v0.015v0.262v0.061l0.01,0.172v0.015v0.146
		l0.005,0.343v0.01l0.01,0.161v0.09v0.085l0.01,0.167v0.005l0.01,0.842v0.021v0.166v0.01v0.167v0.1v0.171v0.082l0.015,0.01v0.167
		v0.094v0.086v0.177c0,7.144-0.691,14.925-2.36,22.148c-0.02,0.1,0,0.06,0.061,0.14l0.01,0.005
		C363.529,495.212,366.802,503.666,370.074,512.11 M343.544,523.035l7.156,18.793c4.267-3.721,7.807-8.824,10.913-14.26
		l-1.836-4.857l-0.136-0.328l-0.141-0.358l-0.146-0.407l-0.03-0.061l-0.676-1.805l-0.065-0.157l-5.199-13.661l-0.434-0.116
		l-0.13,0.284l-0.142,0.276l-0.126,0.272l-0.136,0.271l-0.141,0.283l-0.126,0.277l-0.136,0.266l-0.141,0.282l-0.141,0.269
		l-0.142,0.268l-0.141,0.275l-0.136,0.28l-0.136,0.267l-0.146,0.266l-0.136,0.273l-0.151,0.272l-0.142,0.267l-0.146,0.273
		l-0.146,0.268l-0.151,0.271l-0.141,0.263l-0.152,0.272l-0.151,0.269l-0.146,0.262l-0.156,0.271l-0.151,0.264l-0.152,0.262
		l-0.151,0.271l-0.151,0.262l-0.161,0.264l-0.152,0.263l-0.151,0.262h-0.01l-0.151,0.267l-0.162,0.263l-0.157,0.252l-0.156,0.262
		l-0.162,0.272l-0.162,0.253l-0.161,0.262l-0.162,0.256h-0.01l-0.161,0.253l-0.157,0.263l-0.167,0.262l-0.161,0.253h-0.01
		l-0.162,0.256l-0.171,0.248l-0.162,0.253l-0.17,0.262l-0.162,0.252l-0.182,0.247l-0.166,0.258l-0.171,0.247l-0.172,0.256
		l-0.176,0.247l-0.171,0.254l-0.182,0.246l-0.171,0.247l-0.177,0.247l-0.176,0.242l-0.183,0.252l-0.171,0.246l-0.176,0.242h-0.01
		L343.544,523.035z"/>
	<path clip-path="url(#SVGID_2_)" fill="#FFFFFF" d="M360.246,486.771c-1.568,6.793-3.838,13.325-6.722,19.501
		c9.052,23.787,9.047,23.813,0,0c-2.789,5.914-6.122,11.579-9.975,16.771c-3.036,4.127-6.383,7.994-10.009,11.585
		c-4.024,3.989-8.397,7.645-13.057,10.886c-15.975,11.152-35.413,17.696-56.378,17.696c-14.324,0-27.93-3.05-40.214-8.547
		c-5.371-2.421-10.747-5.305-16.155-9.134l5.966-15.449c5.242,4.149,9.806,6.615,15.925,9.636c4.493,2.598,23.82,7.519,34.478,7.519
		c45.655,0,82.672-37.023,82.672-82.688c0-8.593-1.795-16.817-4.881-24.852c-16.541-43.075-33.252-86.106-49.746-129.211
		c-2.768-8.896-9.244-17.206-17.035-22.945c1.193-0.141,2.405-0.212,3.618-0.212c11.516,0.015,22.484,6.198,27.345,16.586
		c0.473,0.978,0.85,1.966,1.182,2.955l30.731,78.819l21.917,56.146c1.522,3.914,2.118,7.761,2.562,11.947
		c0.349,3.323,0.53,6.752,0.53,10.544C363,471.571,361.965,479.459,360.246,486.771 M361.623,527.577
		c7.806,20.6,15.582,41.16,21.937,57.907h-16.243L350.7,541.828C354.704,537.814,358.345,532.616,361.623,527.577 M353.08,585.484
		h-16.954l-9.158-23.398c4.75-3.061,8.855-6.479,13.293-9.976C339.833,551.003,350.064,577.652,353.08,585.484 M377.952,487.8
		l38.234,97.684h-17.645l-28.467-73.379v-0.004C373.418,504.311,375.728,496.155,377.952,487.8 M207.735,545.529l-15.408,39.955
		h-16.745l79.471-207.79l-7.627-19.813c-28.482,76.151-56.808,151.697-85.93,227.603h-16.318L247.99,313.585l53.853,139.268
		c1.458,3.813,2.098,7.614,2.098,11.685c0,22.061-17.879,39.928-39.922,39.928c-6.888,0-13.37-1.745-19.028-4.82
		c-5.351-2.976-10.541-7.014-14.428-13.313l9.899-26.933c-2.34,12.53,2.933,20.195,10.187,25.498
		c-0.088-0.057,6.853,3.992,13.37,3.992c13.435,0,24.342-10.898,24.342-24.351c0-3.748-1.089-6.738-2.474-10.121l-21.957-53.606
		l0.015,0.03l-21.646,53.56c-0.759,1.871-1.492,3.671-1.989,5.532l0.146-0.534l-9.894,26.933l-5.479,14.221l-6.306,16.353
		l-5.076,13.174L207.735,545.529z M264.069,517.613c29.321,0,53.096-23.777,53.096-53.107c0-5.505-0.847-10.573-2.824-15.757
		c-17.466-45.658-33.948-91.82-52.42-137.125c-2.227-5.477-6.961-9.364-13.57-9.38c-6.368,0.016-11.861,3.994-13.609,9.587
		c-34.68,91.522-69.358,182.506-104.865,273.654h-17.759c36.187-92.626,72.164-185.259,107.713-278.137
		c0.335-1.008,0.711-1.998,1.182-2.976c4.869-10.367,15.822-16.57,27.338-16.585c11.52,0.015,22.478,6.218,27.342,16.585
		c0.458,0.979,0.847,1.968,1.177,2.96c17.366,45.537,35.242,90.913,52.6,136.45c2.566,6.702,3.858,13.595,3.858,20.725
		c0,38.261-31.009,69.27-69.258,69.27c-10.603,0-20.641-2.391-29.62-6.652c-5.428-2.621-10.845-5.91-15.673-10.217l6.306-16.353
		c4.188,4.457,8.57,8.023,15.177,11.426C244.975,514.604,256.732,517.613,264.069,517.613"/>
	<path clip-path="url(#SVGID_2_)" fill="#FFFFFF" d="M94.753,670.305v-56.016h34.32v12.295h-19.436v9.702h18.315v12.002h-18.315
		v22.017H94.753z M157.153,614.289h15.421v56.016h-15.421V614.289z M204.297,670.305v-56.016h15.279v42.936h18.977v13.08H204.297z
		 M270.672,670.305v-42.768h-12.544v-13.248h40.356v13.248h-12.537v42.768H270.672z M325.345,670.305v-56.016h34.316v12.295h-19.44
		v9.702h18.326v12.002h-18.326v9.48h19.44v12.536H325.345z M389.142,670.305v-56.016h15.955c6.243,0,10.595,0.288,13.056,0.879
		c2.452,0.559,4.584,1.536,6.384,2.873c2.017,1.538,3.555,3.484,4.63,5.846c1.104,2.389,1.634,4.981,1.634,7.867
		c0,4.32-1.07,7.855-3.197,10.568c-2.138,2.714-5.215,4.514-9.319,5.407l15.26,22.575h-17.242l-12.844-21.921v21.921H389.142z
		 M403.458,640.754h2.834c3.293,0,5.684-0.56,7.201-1.683c1.518-1.121,2.269-2.876,2.269-5.267c0-2.804-0.696-4.796-2.127-5.99
		c-1.407-1.184-3.787-1.775-7.131-1.775h-3.046V640.754z"/>
	
		<line clip-path="url(#SVGID_2_)" fill="none" stroke="#000000" stroke-width="2" stroke-miterlimit="10" x1="518" y1="286" x2="518" y2="673"/>
</g>
<text transform="matrix(1 0 0 1 530.1455 376.4531)"><tspan x="0" y="0" fill="#FFFFFF" font-family="'Swiss721BT-BoldCondensed'" font-size="122.735">WE </tspan><tspan x="0" y="147.282" fill="#FFFFFF" font-family="'Swiss721BT-BoldCondensed'" font-size="122.735">MAKE</tspan><tspan x="0" y="294.563" fill="#FFFFFF" font-family="'Swiss721BT-BoldCondensed'" font-size="122.735">FILTERS</tspan></text>
</svg>
