<?xml version="1.0" encoding="utf-8"?>
<!-- Generator: Adobe Illustrator 16.0.0, SVG Export Plug-In . SVG Version: 6.00 Build 0)  -->
<!DOCTYPE svg PUBLIC "-//W3C//DTD SVG 1.1//EN" "http://www.w3.org/Graphics/SVG/1.1/DTD/svg11.dtd">
<svg version="1.1" id="Layer_1" xmlns="http://www.w3.org/2000/svg" xmlns:xlink="http://www.w3.org/1999/xlink" x="0px" y="0px"
	 width="1000px" height="1000px" viewBox="0 0 1000 1000" enable-background="new 0 0 1000 1000" xml:space="preserve">
<path fill="#53585F" d="M294.266,719.366l43.562-73.389h17.213l44.23,73.389h-20.073l-9.255-16.104h-48.544l-9.259,16.104H294.266z
	 M329.006,689.869h33.645l-17.102-30.58L329.006,689.869z M417.555,719.366v-73.389h18.051v59.651h57.539v13.737H417.555z
	 M513.332,719.366v-73.389h78.746v12.967h-60.689v15.994h35.347v12.638h-35.347v18.053H593v13.737H513.332z M611.288,719.366
	l36.274-37.631l-36.942-35.758h23.98l24.676,23.727l23.226-23.727h20.664l-33.474,33.649l41.278,39.739H686.47l-28.115-27.448
	l-25.863,27.448H611.288z"/>
<g>
	<defs>
		<rect id="SVGID_1_" x="195.115" y="95.295" width="614.627" height="1117.244"/>
	</defs>
	<clipPath id="SVGID_2_">
		<use xlink:href="#SVGID_1_"  overflow="visible"/>
	</clipPath>
	<path clip-path="url(#SVGID_2_)" fill="#53585F" d="M294.266,771.374v-18.829h19.284v3.204h-14.896v4.205h8.692v3.208h-8.692v4.666
		h15.074v3.546H294.266z M328.827,771.374v-18.829h2.995l13.261,11.096c0.451,0.37,0.842,0.718,1.194,1.044
		c0.34,0.334,0.655,0.67,0.935,1.001c-0.064-1.059-0.111-1.809-0.132-2.241c-0.031-0.443-0.041-0.775-0.041-1.016v-9.884h3.934
		v18.829h-2.993l-13.825-11.632c-0.337-0.303-0.626-0.572-0.879-0.803c-0.245-0.234-0.478-0.479-0.69-0.727
		c0.06,0.579,0.104,1.126,0.134,1.647c0.035,0.514,0.039,0.952,0.039,1.341v10.173H328.827z M385.315,755.912H371.63v11.916h13.685
		v-4.188h-7.167v-3.205h11.418v6.484c0,1.726-0.326,2.896-0.96,3.517c-0.645,0.627-1.876,0.938-3.701,0.938H371.91
		c-1.823,0-3.059-0.311-3.701-0.938c-0.641-0.621-0.96-1.791-0.96-3.517v-9.914c0-1.725,0.319-2.887,0.96-3.519
		c0.643-0.625,1.878-0.942,3.701-0.942h12.994c1.804,0,3.032,0.313,3.687,0.922c0.648,0.623,0.974,1.738,0.974,3.355v0.424
		l-4.25,0.771V755.912z M405.893,752.545h4.386v18.829h-4.386V752.545z M426.915,771.374v-18.829h2.995l13.263,11.096
		c0.449,0.37,0.842,0.718,1.192,1.044c0.342,0.334,0.657,0.67,0.941,1.001c-0.067-1.059-0.119-1.809-0.142-2.241
		c-0.021-0.443-0.035-0.775-0.035-1.016v-9.884h3.934v18.829h-2.993l-13.823-11.632c-0.339-0.303-0.63-0.572-0.875-0.803
		c-0.253-0.234-0.48-0.479-0.696-0.727c0.053,0.579,0.103,1.126,0.136,1.647c0.024,0.514,0.041,0.952,0.041,1.341v10.173H426.915z
		 M465.721,771.374v-18.829h19.284v3.204h-14.898v4.205h8.7v3.208h-8.7v4.666h15.076v3.546H465.721z M500.325,771.374v-18.829
		h19.278v3.204h-14.892v4.205h8.692v3.208h-8.692v4.666h15.068v3.546H500.325z M549.093,755.798h-9.854v5.25h9.854
		c0.763,0,1.277-0.112,1.554-0.333c0.275-0.216,0.419-0.609,0.419-1.168v-2.272c0-0.542-0.144-0.924-0.419-1.146
		C550.37,755.912,549.855,755.798,549.093,755.798 M534.914,771.374v-18.829h16.115c1.498,0,2.578,0.283,3.258,0.861
		c0.663,0.576,1.001,1.505,1.001,2.786v4.428c0,1.271-0.338,2.188-1.001,2.771c-0.68,0.587-1.76,0.871-3.258,0.871h-2.456
		l8.69,7.111h-6.293l-7.579-7.111h-4.153v7.111H534.914z M571.232,752.545h4.387v18.829h-4.387V752.545z M592.268,771.374v-18.829
		h2.984l13.263,11.096c0.454,0.37,0.851,0.718,1.196,1.044c0.345,0.334,0.653,0.67,0.942,1.001c-0.066-1.059-0.118-1.809-0.14-2.241
		c-0.024-0.443-0.033-0.775-0.033-1.016v-9.884h3.929v18.829h-2.994l-13.822-11.632c-0.325-0.303-0.626-0.572-0.878-0.803
		c-0.246-0.234-0.482-0.479-0.695-0.727c0.053,0.579,0.098,1.126,0.14,1.647c0.028,0.514,0.037,0.952,0.037,1.341v10.173H592.268z
		 M648.749,755.912h-13.688v11.916h13.688v-4.188h-7.168v-3.205h11.423v6.484c0,1.726-0.326,2.896-0.96,3.517
		c-0.643,0.627-1.883,0.938-3.702,0.938H635.35c-1.828,0-3.06-0.311-3.706-0.938c-0.635-0.621-0.96-1.791-0.96-3.517v-9.914
		c0-1.725,0.325-2.887,0.96-3.519c0.646-0.625,1.878-0.942,3.706-0.942h12.992c1.803,0,3.033,0.313,3.689,0.922
		c0.643,0.623,0.973,1.738,0.973,3.355v0.424l-4.255,0.771V755.912z M310.065,794.104h-11.807v11.921h11.807v-4.048l4.391,0.9v2.233
		c0,1.723-0.324,2.892-0.976,3.517c-0.644,0.626-1.882,0.935-3.696,0.935h-11.238c-1.829,0-3.066-0.309-3.706-0.935
		c-0.641-0.625-0.962-1.794-0.962-3.517v-9.918c0-1.719,0.322-2.884,0.962-3.519c0.64-0.625,1.877-0.943,3.706-0.943h11.238
		c1.814,0,3.053,0.318,3.696,0.943c0.652,0.635,0.976,1.8,0.976,3.519v1.78l-4.391,0.688V794.104z M331.378,795.192
		c0-1.719,0.325-2.884,0.966-3.519c0.641-0.625,1.873-0.943,3.701-0.943h13.857c1.829,0,3.064,0.318,3.71,0.943
		c0.63,0.635,0.957,1.8,0.957,3.519v9.918c0,1.723-0.327,2.892-0.957,3.517c-0.646,0.626-1.881,0.935-3.71,0.935h-13.857
		c-1.829,0-3.061-0.309-3.701-0.935c-0.641-0.625-0.966-1.794-0.966-3.517V795.192z M335.763,806.024h14.441v-11.917h-14.441
		V806.024z M372.048,809.562V790.73h2.992l13.265,11.097c0.449,0.376,0.842,0.723,1.188,1.044c0.344,0.334,0.655,0.669,0.941,1.007
		c-0.066-1.06-0.113-1.811-0.138-2.246c-0.026-0.436-0.04-0.781-0.04-1.016v-9.886h3.938v18.831h-3l-13.82-11.627
		c-0.336-0.299-0.626-0.572-0.874-0.81c-0.249-0.229-0.482-0.475-0.7-0.725c0.06,0.581,0.109,1.13,0.134,1.646
		c0.035,0.518,0.045,0.964,0.045,1.342v10.173H372.048z M428.393,794.032H416.07v4.035h11.737c1.843,0,3.085,0.32,3.734,0.95
		c0.648,0.631,0.974,1.793,0.974,3.518v2.575c0,1.712-0.326,2.876-0.974,3.509c-0.649,0.63-1.891,0.942-3.734,0.942h-11.623
		c-1.844,0-3.089-0.313-3.738-0.942c-0.648-0.633-0.974-1.797-0.974-3.509v-0.516l3.867-0.8v2.229h13.306v-4.299h-11.738
		c-1.829,0-3.064-0.32-3.705-0.947c-0.643-0.63-0.962-1.8-0.962-3.509v-2.077c0-1.719,0.319-2.884,0.962-3.519
		c0.641-0.625,1.876-0.943,3.705-0.943h10.684c1.769,0,2.996,0.308,3.66,0.908c0.682,0.607,1.015,1.69,1.015,3.226v0.395
		l-3.872,0.91V794.032z M458.65,794.104v15.458h-4.38v-15.458h-8.644v-3.373h21.698v3.373H458.65z M495.138,793.988h-9.856v5.249
		h9.856c0.758,0,1.274-0.115,1.551-0.332c0.288-0.223,0.424-0.604,0.424-1.173v-2.268c0-0.539-0.136-0.929-0.424-1.145
		C496.412,794.104,495.896,793.988,495.138,793.988 M480.969,809.562V790.73h16.11c1.491,0,2.581,0.287,3.246,0.865
		c0.675,0.574,1.005,1.512,1.005,2.787v4.428c0,1.265-0.33,2.188-1.005,2.771c-0.665,0.583-1.755,0.877-3.246,0.877h-2.458
		l8.687,7.103h-6.284l-7.588-7.103h-4.154v7.103H480.969z M522.895,790.73v15.294h12.483V790.73h4.36v14.38
		c0,1.723-0.317,2.892-0.954,3.517c-0.645,0.626-1.875,0.935-3.714,0.935h-11.896c-1.818,0-3.042-0.309-3.697-0.935
		c-0.644-0.625-0.972-1.794-0.972-3.517v-14.38H522.895z M573.473,794.104h-11.812v11.921h11.812v-4.048l4.379,0.9v2.233
		c0,1.723-0.326,2.892-0.977,3.517c-0.638,0.626-1.878,0.935-3.695,0.935h-11.235c-1.829,0-3.062-0.309-3.711-0.935
		c-0.635-0.625-0.96-1.794-0.96-3.517v-9.918c0-1.719,0.325-2.884,0.96-3.519c0.649-0.625,1.882-0.943,3.711-0.943h11.235
		c1.817,0,3.058,0.318,3.695,0.943c0.65,0.635,0.977,1.8,0.977,3.519v1.78l-4.379,0.688V794.104z M603.928,794.104v15.458h-4.383
		v-15.458h-8.633v-3.373h21.693v3.373H603.928z M626.255,790.73h4.384v18.831h-4.384V790.73z M648.15,795.192
		c0-1.719,0.327-2.884,0.97-3.519c0.638-0.625,1.882-0.943,3.702-0.943h13.856c1.828,0,3.06,0.318,3.707,0.943
		c0.633,0.635,0.963,1.8,0.963,3.519v9.918c0,1.723-0.33,2.892-0.963,3.517c-0.647,0.626-1.879,0.935-3.707,0.935h-13.856
		c-1.82,0-3.064-0.309-3.702-0.935c-0.643-0.625-0.97-1.794-0.97-3.517V795.192z M652.541,806.024h14.441v-11.917h-14.441V806.024z
		 M688.821,809.562V790.73h3.002l13.259,11.097c0.441,0.376,0.849,0.723,1.187,1.044c0.343,0.334,0.663,0.669,0.95,1.007
		c-0.077-1.06-0.126-1.811-0.144-2.246c-0.024-0.436-0.037-0.781-0.037-1.016v-9.886h3.929v18.831h-2.99l-13.826-11.627
		c-0.33-0.299-0.621-0.572-0.873-0.81c-0.256-0.229-0.478-0.475-0.7-0.725c0.065,0.581,0.107,1.13,0.14,1.646
		c0.034,0.518,0.046,0.964,0.046,1.342v10.173H688.821z"/>
	<path clip-path="url(#SVGID_2_)" fill="#53585F" d="M689.188,768.098h8.724l1.751-1.497l-5.647-4.701l-4.827,2.97V768.098z
		 M690.226,771.374c-1.841,0-3.089-0.321-3.749-0.942c-0.653-0.639-0.972-1.801-0.972-3.512v-1.234c0-0.813,0.137-1.462,0.412-1.92
		c0.287-0.457,0.927-0.99,1.928-1.587l3.826-2.296c-0.564-0.472-0.968-0.938-1.227-1.381c-0.251-0.442-0.384-0.935-0.384-1.479
		v-1.044c0-1.25,0.346-2.127,1.03-2.65c0.687-0.524,1.902-0.784,3.641-0.784h3.798c1.804,0,3.043,0.273,3.694,0.816
		c0.654,0.549,0.984,1.542,0.984,2.979v1.129l-3.41,0.579v-2.517h-6.162v1.358l8.881,7.372l4.365-3.652l2.491,2.16l-4.349,3.605
		l5.946,4.998h-5.731l-3.102-2.621l-1.677,1.497c-0.499,0.433-0.969,0.721-1.409,0.88c-0.448,0.168-1.162,0.244-2.121,0.244H690.226
		z"/>
</g>
<polygon fill="#53585F" points="699.854,541.655 710.976,534.74 710.976,144.689 699.854,137.768 "/>
<polygon fill="#53585F" points="682.741,551.537 689.59,546.599 689.59,132.836 682.741,127.899 "/>
<polygon fill="#53585F" points="665.636,561.412 672.481,556.473 672.481,122.956 665.636,118.015 "/>
<polygon fill="#53585F" points="648.525,571.292 655.375,566.349 655.375,113.077 648.525,108.134 "/>
<polygon fill="#53585F" points="625.428,95.295 539.872,144.684 622.923,100.314 622.923,576.608 539.872,534.74 625.428,584.13 
	638.258,576.229 638.258,103.191 "/>
<g>
	<path fill="#0081C7" d="M539.878,534.74H488.91V433.326H370.328c-12.479,32.592-20.977,66.396-25.565,101.414h-50.884
		c8.668-73.157,34.327-145.449,76.975-216.869c42.296-71.074,98.638-128.808,169.024-173.183 M391.658,383.402h97.252V248.174
		C448.337,288.059,415.928,333.122,391.658,383.402"/>
</g>
</svg>
