<svg xmlns="http://www.w3.org/2000/svg" width="18" height="12.15" viewBox="0 0 18 12.15">
  <path id="mail" d="M.072,15.142v-10q0-.017.052-.33L6.008,9.848.141,15.489a1.471,1.471,0,0,1-.069-.347ZM.853,4.12a.748.748,0,0,1,.3-.052H17a.983.983,0,0,1,.312.052l-5.9,5.051-.781.625L9.081,11.063,7.536,9.8l-.781-.625ZM.87,16.166,6.789,10.49l2.291,1.857,2.291-1.857,5.919,5.676a.833.833,0,0,1-.3.052H1.148a.786.786,0,0,1-.278-.052ZM12.153,9.848,18.02,4.814a1.036,1.036,0,0,1,.052.33v10a1.33,1.33,0,0,1-.052.347Z" transform="translate(-0.072 -4.068)" fill="#0082c6"/>
</svg>
