<svg xmlns="http://www.w3.org/2000/svg" width="36.057" height="47.031" viewBox="0 0 36.057 47.031">
  <g id="paper" transform="translate(-353 -308)">
    <path id="Path_5" data-name="Path 5" d="M353,347.167v40.76a.784.784,0,0,0,.784.784H383.57a.784.784,0,0,0,.784-.784V355.005a.436.436,0,0,0-.01-.049.742.742,0,0,0-.04-.2.768.768,0,0,0-.026-.074.779.779,0,0,0-.157-.23l-7.839-7.839a.762.762,0,0,0-.23-.156.6.6,0,0,0-.072-.026.75.75,0,0,0-.2-.041c-.013,0-.029-.006-.045-.006H353.784a.784.784,0,0,0-.784.783Zm28.678,7.055h-5.162v-5.162Zm-27.111-6.27h20.381v7.054a.784.784,0,0,0,.784.784h7.054v31.354H354.568Zm0,0" transform="translate(0 -33.68)" fill="#54585f"/>
    <path id="Path_6" data-name="Path 6" d="M419.6,348.76v1.568h2.351a.784.784,0,0,0,.784-.784v-40.76a.784.784,0,0,0-.784-.784H392.166a.784.784,0,0,0-.784.784v2.351h1.568v-1.568h28.219V348.76Zm0,0" transform="translate(-33.679 0)" fill="#54585f"/>
    <rect id="Rectangle_8" data-name="Rectangle 8" width="18.812" height="1.568" transform="translate(359.271 323.677)" fill="#54585f"/>
    <rect id="Rectangle_9" data-name="Rectangle 9" width="6.271" height="1.568" transform="translate(359.271 318.974)" fill="#54585f"/>
    <rect id="Rectangle_10" data-name="Rectangle 10" width="12.542" height="1.568" transform="translate(359.271 328.38)" fill="#54585f"/>
    <rect id="Rectangle_11" data-name="Rectangle 11" width="4.703" height="1.568" transform="translate(373.38 328.38)" fill="#54585f"/>
    <rect id="Rectangle_12" data-name="Rectangle 12" width="18.812" height="1.568" transform="translate(359.271 333.083)" fill="#54585f"/>
    <rect id="Rectangle_13" data-name="Rectangle 13" width="18.812" height="1.568" transform="translate(359.271 342.489)" fill="#54585f"/>
    <rect id="Rectangle_14" data-name="Rectangle 14" width="11.758" height="1.568" transform="translate(366.326 337.786)" fill="#54585f"/>
    <rect id="Rectangle_15" data-name="Rectangle 15" width="5.487" height="1.568" transform="translate(359.271 337.786)" fill="#54585f"/>
    <rect id="Rectangle_16" data-name="Rectangle 16" width="3.135" height="1.568" transform="translate(359.271 347.192)" fill="#54585f"/>
    <rect id="Rectangle_17" data-name="Rectangle 17" width="14.11" height="1.568" transform="translate(363.974 347.192)" fill="#54585f"/>
  </g>
</svg>
