<svg xmlns="http://www.w3.org/2000/svg" width="18" height="24" viewBox="0 0 18 24">
  <path id="phone" d="M4.562,23.764a15.575,15.575,0,0,1,0-22.028.806.806,0,0,1,1-.114L8.6,3.521a.806.806,0,0,1,.321.982L7.4,8.3a.806.806,0,0,1-.828.5L3.955,8.543a12.452,12.452,0,0,0,0,8.415L6.571,16.7a.806.806,0,0,1,.828.5L8.919,21a.806.806,0,0,1-.321.982l-3.038,1.9a.806.806,0,0,1-1-.114ZM11.584,4.475a3,3,0,0,1,0,3.049.565.565,0,0,1-.877.121l-.28-.268a.567.567,0,0,1-.106-.675,1.5,1.5,0,0,0,0-1.4.567.567,0,0,1,.106-.675l.28-.268a.565.565,0,0,1,.877.121ZM15.887.2a9.013,9.013,0,0,1,0,11.6.565.565,0,0,1-.823.044l-.272-.26a.564.564,0,0,1-.044-.768,7.511,7.511,0,0,0,0-9.629.564.564,0,0,1,.044-.768l.272-.26A.565.565,0,0,1,15.887.2ZM13.732,2.308a6.009,6.009,0,0,1,0,7.385.565.565,0,0,1-.837.061l-.273-.262a.562.562,0,0,1-.06-.747,4.506,4.506,0,0,0,0-5.491.562.562,0,0,1,.06-.747l.273-.262a.565.565,0,0,1,.837.061Z" fill="#0082c6"/>
</svg>
