<?xml version="1.0" encoding="utf-8"?>
<!-- Generator: Adobe Illustrator 16.0.0, SVG Export Plug-In . SVG Version: 6.00 Build 0)  -->
<!DOCTYPE svg PUBLIC "-//W3C//DTD SVG 1.1//EN" "http://www.w3.org/Graphics/SVG/1.1/DTD/svg11.dtd">
<svg version="1.1" id="Layer_1" xmlns="http://www.w3.org/2000/svg" xmlns:xlink="http://www.w3.org/1999/xlink" x="0px" y="0px"
	 width="1000px" height="1000px" viewBox="0 0 1000 1000" enable-background="new 0 0 1000 1000" xml:space="preserve">
<g>
	<g>
		<defs>
			<rect id="SVGID_1_" x="308" y="308" width="384" height="384"/>
		</defs>
		<clipPath id="SVGID_2_">
			<use xlink:href="#SVGID_1_"  overflow="visible"/>
		</clipPath>
		<path clip-path="url(#SVGID_2_)" fill="#54585F" d="M309.215,343.227l25.609,44.812c0.864,1.516,2.309,2.609,4,3.035l23.895,5.973
			l81.945,81.945l9.055-9.051l-83.231-83.226c-0.816-0.82-1.843-1.403-2.968-1.684l-22.958-5.761l-21.804-38.176l18.691-18.696
			l38.196,21.825l5.761,22.957c0.282,1.129,0.864,2.16,1.684,2.977l83.23,83.23l9.051-9.055l-81.945-81.945l-5.977-23.883
			c-0.422-1.692-1.519-3.141-3.031-4.008l-44.816-25.605c-2.5-1.422-5.645-1-7.684,1.031l-25.609,25.609
			C308.25,337.555,307.805,340.703,309.215,343.227L309.215,343.227z M309.215,343.227"/>
	</g>
	<path fill="#54585F" d="M575.387,434.176L434.539,575.023l-9.055-9.055l140.852-140.844L575.387,434.176z M575.387,434.176"/>
	<g>
		<defs>
			<rect id="SVGID_3_" x="308" y="308" width="384" height="384"/>
		</defs>
		<clipPath id="SVGID_4_">
			<use xlink:href="#SVGID_3_"  overflow="visible"/>
		</clipPath>
		<path clip-path="url(#SVGID_4_)" fill="#54585F" d="M409.891,580.008c-1.161-1.93-3.243-3.105-5.489-3.105h-38.414
			c-2.246,0-4.328,1.176-5.484,3.105l-19.207,32.008c-1.223,2.027-1.223,4.566,0,6.598l19.207,32.008
			c1.156,1.926,3.238,3.105,5.484,3.105h38.414c2.246,0,4.328-1.18,5.489-3.105l19.203-32.008c1.218-2.031,1.218-4.57,0-6.598
			L409.891,580.008z M400.781,640.922h-31.168l-15.367-25.61l15.367-25.608h31.168l15.364,25.608L400.781,640.922z M400.781,640.922
			"/>
		<path clip-path="url(#SVGID_4_)" fill="#54585F" d="M615.672,461.664c42.281,0.141,76.676-34.023,76.82-76.305
			c0.02-6.437-0.77-12.847-2.352-19.086c-0.855-3.433-4.328-5.519-7.758-4.668c-1.129,0.282-2.156,0.864-2.977,1.684l-39.855,39.824
			l-31.617-10.535l-10.547-31.613l39.852-39.86c2.5-2.503,2.5-6.554-0.004-9.054c-0.824-0.824-1.863-1.41-2.996-1.688
			c-41.008-10.386-82.664,14.438-93.047,55.442c-1.578,6.218-2.367,12.613-2.344,19.031c0.016,5.043,0.535,10.066,1.555,15.004
			L400.195,540.043c-4.937-1.02-9.961-1.535-15-1.555c-42.429,0-76.824,34.395-76.824,76.823c0,42.431,34.395,76.825,76.824,76.825
			c42.43,0,76.825-34.395,76.825-76.825c-0.016-5.038-0.536-10.062-1.555-15l33.566-33.565l14.68,14.68c2.5,2.5,6.551,2.5,9.055,0
			l3.199-3.203c2.805-2.789,7.344-2.789,10.152,0c2.805,2.797,2.809,7.339,0.012,10.145c0,0.004-0.008,0.008-0.012,0.012
			l-3.199,3.199c-2.5,2.5-2.5,6.555,0,9.055l76.371,76.371c20.086,20.27,52.801,20.418,73.074,0.332
			c20.266-20.09,20.414-52.805,0.328-73.074c-0.109-0.113-0.219-0.223-0.328-0.332l-76.371-76.371c-2.5-2.497-6.555-2.497-9.055,0
			l-3.199,3.203c-2.809,2.789-7.344,2.789-10.156,0c-2.801-2.797-2.809-7.34-0.012-10.141c0.004-0.004,0.012-0.008,0.012-0.012
			l3.203-3.203c2.5-2.5,2.5-6.555,0-9.055l-14.68-14.68l33.566-33.567C605.605,461.125,610.633,461.648,615.672,461.664
			L615.672,461.664z M640.824,679.336c-4.652-0.008-9.262-0.848-13.617-2.484l50-50c7.547,20.07-2.605,42.457-22.676,50
			C650.148,678.5,645.508,679.34,640.824,679.336L640.824,679.336z M568.297,512.945c-7.09,8.457-5.98,21.059,2.477,28.148
			c7.434,6.227,18.266,6.223,25.691-0.02l71.844,71.91c0.781,0.781,1.512,1.605,2.215,2.441l-54.738,54.738
			c-0.84-0.703-1.664-1.43-2.445-2.215l-71.902-71.906c7.09-8.457,5.98-21.063-2.477-28.148c-7.434-6.23-18.27-6.223-25.691,0.016
			l-10.242-10.242l55.023-54.941L568.297,512.945z M594.148,448.555L448.914,593.758c-1.594,1.59-2.234,3.898-1.691,6.082
			c8.785,34.496-12.059,69.578-46.555,78.359c-34.492,8.781-69.574-12.063-78.359-46.555c-8.782-34.496,12.062-69.578,46.558-78.359
			c10.434-2.656,21.367-2.656,31.801,0c2.184,0.531,4.488-0.105,6.086-1.691l145.199-145.207c1.59-1.59,2.23-3.899,1.68-6.078
			c-8.723-34.09,11.844-68.797,45.934-77.524c6.441-1.644,13.105-2.277,19.742-1.863l-33.773,33.785
			c-1.715,1.711-2.313,4.246-1.547,6.547l12.801,38.414c0.641,1.91,2.141,3.41,4.055,4.043l38.414,12.805
			c2.297,0.769,4.832,0.172,6.547-1.543l33.773-33.77c0.074,1.223,0.113,2.43,0.113,3.633c0.18,35.18-28.191,63.84-63.367,64.023
			c-5.438,0.028-10.859-0.644-16.125-1.992c-2.184-0.543-4.496,0.094-6.086,1.684h0.035V448.555z M594.148,448.555"/>
	</g>
	<path fill="#54585F" d="M639.41,629.992l-9.055,9.055l-64.02-64.02l9.051-9.055L639.41,629.992z M639.41,629.992"/>
</g>
</svg>
