<svg xmlns="http://www.w3.org/2000/svg" xmlns:xlink="http://www.w3.org/1999/xlink" width="36" height="36" viewBox="0 0 36 36">
  <defs>
    <clipPath id="clip-path">
      <rect id="Rectangle_18" data-name="Rectangle 18" width="36" height="36"/>
    </clipPath>
  </defs>
  <g id="support" transform="translate(-308 -308)">
    <g id="Group_2" data-name="Group 2" transform="translate(308 308)">
      <g id="Group_1" data-name="Group 1" transform="translate(0 0)" clip-path="url(#clip-path)">
        <path id="Path_7" data-name="Path 7" d="M308.475,311.4l2.435,4.26a.608.608,0,0,0,.38.289l2.272.568,7.79,7.79.861-.86-7.913-7.912a.6.6,0,0,0-.282-.16l-2.183-.548-2.073-3.629,1.777-1.777,3.631,2.075.548,2.182a.607.607,0,0,0,.16.283l7.913,7.913.86-.861-7.79-7.79-.568-2.271a.61.61,0,0,0-.288-.381l-4.261-2.434a.609.609,0,0,0-.73.1l-2.435,2.435a.609.609,0,0,0-.1.732Zm0,0" transform="translate(-308.36 -308.049)" fill="#54585f"/>
      </g>
    </g>
    <path id="Path_8" data-name="Path 8" d="M439.735,425.985l-13.39,13.39-.861-.861,13.391-13.39Zm0,0" transform="translate(-106.315 -105.989)" fill="#54585f"/>
    <g id="Group_5" data-name="Group 5" transform="translate(308 308)">
      <g id="Group_3" data-name="Group 3" transform="translate(0 0)" clip-path="url(#clip-path)">
        <path id="Path_9" data-name="Path 9" d="M346.988,577.2a.609.609,0,0,0-.522-.3h-3.652a.608.608,0,0,0-.521.3l-1.826,3.043a.607.607,0,0,0,0,.627l1.826,3.043a.608.608,0,0,0,.521.3h3.652a.61.61,0,0,0,.522-.3l1.826-3.043a.61.61,0,0,0,0-.627Zm-.866,5.791h-2.963l-1.461-2.435,1.461-2.435h2.963l1.461,2.435Zm0,0" transform="translate(-337.301 -551.339)" fill="#54585f"/>
      </g>
      <g id="Group_4" data-name="Group 4" transform="translate(0 0)" clip-path="url(#clip-path)">
        <path id="Path_10" data-name="Path 10" d="M337.585,322.609a7.278,7.278,0,0,0,7.08-9.069.608.608,0,0,0-1.021-.284l-3.789,3.786-3.006-1-1-3.005,3.789-3.789a.609.609,0,0,0-.285-1.021,7.281,7.281,0,0,0-9.069,7.08,7.16,7.16,0,0,0,.148,1.426L317.1,330.06a7.188,7.188,0,0,0-1.426-.148,7.3,7.3,0,1,0,7.3,7.3,7.167,7.167,0,0,0-.148-1.426l3.191-3.191,1.4,1.4a.609.609,0,0,0,.861,0l.3-.3a.683.683,0,0,1,.966.964h0l-.3.3a.609.609,0,0,0,0,.861l7.26,7.26a4.912,4.912,0,1,0,6.978-6.915l-.031-.032-7.26-7.26a.609.609,0,0,0-.861,0l-.3.3a.683.683,0,0,1-.967-.964h0l.3-.3a.609.609,0,0,0,0-.861l-1.4-1.4,3.191-3.191a7.157,7.157,0,0,0,1.426.148Zm2.391,20.694a3.7,3.7,0,0,1-1.295-.236l4.753-4.753a3.691,3.691,0,0,1-3.459,4.99Zm-6.895-15.818a1.9,1.9,0,0,0,2.678,2.674l6.83,6.836c.074.074.144.153.211.232l-5.2,5.2c-.08-.067-.158-.136-.232-.211l-6.836-6.836a1.9,1.9,0,0,0-2.678-2.674l-.974-.974,5.231-5.223Zm2.458-6.121-13.807,13.8a.609.609,0,0,0-.161.578,6.127,6.127,0,1,1-4.426-4.426.615.615,0,0,0,.579-.161l13.8-13.8a.607.607,0,0,0,.16-.578,6.057,6.057,0,0,1,6.244-7.547l-3.211,3.212a.608.608,0,0,0-.147.622l1.217,3.652a.608.608,0,0,0,.385.384l3.652,1.217a.607.607,0,0,0,.622-.147l3.211-3.21c.007.116.011.231.011.345a6.054,6.054,0,0,1-7.557,5.9.61.61,0,0,0-.579.16h0Zm0,0" transform="translate(-308.336 -308)" fill="#54585f"/>
      </g>
    </g>
    <path id="Path_11" data-name="Path 11" d="M573.282,572.058l-.861.861-6.086-6.086.86-.861Zm0,0" transform="translate(-233.776 -233.447)" fill="#54585f"/>
  </g>
</svg>
