<?xml version="1.0" encoding="utf-8"?>
<!-- Generator: Adobe Illustrator 16.0.0, SVG Export Plug-In . SVG Version: 6.00 Build 0)  -->
<!DOCTYPE svg PUBLIC "-//W3C//DTD SVG 1.1//EN" "http://www.w3.org/Graphics/SVG/1.1/DTD/svg11.dtd">
<svg version="1.1" id="Layer_1" xmlns="http://www.w3.org/2000/svg" xmlns:xlink="http://www.w3.org/1999/xlink" x="0px" y="0px"
	 width="1000px" height="1000px" viewBox="0 0 1000 1000" enable-background="new 0 0 1000 1000" xml:space="preserve">
<g>
	<path fill="#54585F" d="M676.363,458.484L596,424.047V356c0-1.59-0.633-3.117-1.758-4.242l-30-30
		C563.117,320.633,561.59,320,560,320H338c-9.941,0-18,8.059-18,18v324c0,9.941,8.059,18,18,18h240c9.941,0,18-8.059,18-18v-14.914
		l31.234-22.285c33.09-23.684,52.734-61.863,52.766-102.555V464C680,461.602,678.57,459.43,676.363,458.484L676.363,458.484z
		 M584,358.484V362h-30v-30h3.516L584,358.484z M578,668H338c-3.312,0-6-2.688-6-6V338c0-3.312,2.688-6,6-6h204v36
		c0,3.312,2.688,6,6,6h36v50.047l-80.363,34.437C501.43,459.43,500,461.602,500,464v58.246
		c0.031,40.691,19.676,78.871,52.766,102.555L584,647.086V662C584,665.312,581.313,668,578,668L578,668z M668,522.246
		c-0.035,36.809-17.809,71.344-47.734,92.77L590,636.625l-30.266-21.598c-29.93-21.43-47.703-55.969-47.734-92.781v-54.293
		l78-33.426l78,33.426V522.246z M668,522.246"/>
	<path fill="#54585F" d="M587.77,452.426l-60,24c-2.277,0.914-3.77,3.121-3.77,5.574v37.859
		c-0.07,31.004,14.027,60.34,38.281,79.652l23.969,19.199c2.191,1.754,5.309,1.754,7.5,0l23.969-19.199
		c24.254-19.313,38.352-48.648,38.281-79.652V482c0-2.453-1.492-4.66-3.77-5.574l-60-24
		C590.797,451.855,589.203,451.855,587.77,452.426L587.77,452.426z M644,486.062v33.797c0.066,27.355-12.375,53.238-33.773,70.273
		L590,606.32l-20.227-16.199c-21.395-17.035-33.836-42.914-33.773-70.262v-33.797l54-21.601L644,486.062z M644,486.062"/>
	<path fill="#54585F" d="M350,428h168c3.313,0,6-2.688,6-6v-72c0-3.312-2.688-6-6-6H350c-3.312,0-6,2.688-6,6v72
		C344,425.312,346.688,428,350,428L350,428z M356,356h156v60H356V356z M356,356"/>
	<path fill="#54585F" d="M482,572H350c-3.312,0-6,2.688-6,6v72c0,3.312,2.688,6,6,6h132c3.312,0,6-2.688,6-6v-72
		C488,574.688,485.312,572,482,572L482,572z M476,644H356v-60h120V644z M476,644"/>
	<rect x="344" y="458" fill="#54585F" width="144" height="12"/>
	<rect x="344" y="494" fill="#54585F" width="144" height="12"/>
	<rect x="344" y="530" fill="#54585F" width="144" height="12"/>
</g>
</svg>
