<svg xmlns="http://www.w3.org/2000/svg" width="36" height="36" viewBox="0 0 36 36">
  <g id="warranty" transform="translate(-320 -320)">
    <path id="Path_12" data-name="Path 12" d="M355.636,333.848,347.6,330.4v-6.8a.6.6,0,0,0-.176-.424l-3-3A.6.6,0,0,0,344,320H321.8a1.8,1.8,0,0,0-1.8,1.8v32.4a1.8,1.8,0,0,0,1.8,1.8h24a1.8,1.8,0,0,0,1.8-1.8v-1.491l3.123-2.228A12.624,12.624,0,0,0,356,340.225V334.4a.6.6,0,0,0-.364-.552Zm-9.236-10v.352h-3v-3h.352Zm-.6,30.952h-24a.6.6,0,0,1-.6-.6V321.8a.6.6,0,0,1,.6-.6h20.4v3.6a.6.6,0,0,0,.6.6h3.6v5l-8.036,3.444a.6.6,0,0,0-.364.552v5.825a12.624,12.624,0,0,0,5.277,10.256l3.123,2.228V354.2a.6.6,0,0,1-.6.6Zm9-14.575a11.423,11.423,0,0,1-4.773,9.277L347,351.662l-3.027-2.16a11.423,11.423,0,0,1-4.773-9.278V334.8l7.8-3.343,7.8,3.343Zm0,0" fill="#54585f"/>
    <path id="Path_13" data-name="Path 13" d="M530.377,452.041l-6,2.4A.6.6,0,0,0,524,455v3.786a10.152,10.152,0,0,0,3.828,7.965l2.4,1.92a.6.6,0,0,0,.75,0l2.4-1.92a10.152,10.152,0,0,0,3.828-7.965V455a.6.6,0,0,0-.377-.557l-6-2.4a.6.6,0,0,0-.446,0ZM536,455.4v3.38a8.955,8.955,0,0,1-3.377,7.027L530.6,467.43l-2.023-1.62a8.955,8.955,0,0,1-3.377-7.026V455.4l5.4-2.16Zm0,0" transform="translate(-183.6 -118.798)" fill="#54585f"/>
    <path id="Path_14" data-name="Path 14" d="M344.6,352.4h16.8a.6.6,0,0,0,.6-.6v-7.2a.6.6,0,0,0-.6-.6H344.6a.6.6,0,0,0-.6.6v7.2a.6.6,0,0,0,.6.6Zm.6-7.2h15.6v6H345.2Zm0,0" transform="translate(-21.6 -21.6)" fill="#54585f"/>
    <path id="Path_15" data-name="Path 15" d="M357.8,572H344.6a.6.6,0,0,0-.6.6v7.2a.6.6,0,0,0,.6.6h13.2a.6.6,0,0,0,.6-.6v-7.2a.6.6,0,0,0-.6-.6Zm-.6,7.2h-12v-6h12Zm0,0" transform="translate(-21.6 -226.8)" fill="#54585f"/>
    <rect id="Rectangle_21" data-name="Rectangle 21" width="15" height="1" transform="translate(322 334)" fill="#54585f"/>
    <rect id="Rectangle_22" data-name="Rectangle 22" width="15" height="2" transform="translate(322 337)" fill="#54585f"/>
    <rect id="Rectangle_23" data-name="Rectangle 23" width="15" height="1" transform="translate(322 341)" fill="#54585f"/>
  </g>
</svg>
