<svg xmlns="http://www.w3.org/2000/svg" xmlns:xlink="http://www.w3.org/1999/xlink" width="182.765" height="93" viewBox="0 0 182.765 93">
  <defs>
    <clipPath id="clip-path">
      <rect id="Rectangle_30" data-name="Rectangle 30" width="71.405" height="80.718"/>
    </clipPath>
    <clipPath id="clip-path-4">
      <rect id="Rectangle_33" data-name="Rectangle 33" width="71.405" height="80.718" transform="translate(0 0)"/>
    </clipPath>
  </defs>
  <g id="Logo_we_make_filters" data-name="Logo we make filters" transform="translate(-94.756 -255.453)">
    <line id="Line_5" data-name="Line 5" y2="80.512" transform="translate(175.425 264.47)" fill="none" stroke="#fff" stroke-miterlimit="10" stroke-width="3"/>
    <g id="Group_18" data-name="Group 18" transform="translate(94.756 264.539)">
      <g id="Group_14" data-name="Group 14" transform="translate(0 0)" clip-path="url(#clip-path)">
        <path id="Path_29" data-name="Path 29" d="M323.218,462.108l-2.755,2.27,1.371,3.527.049-.029h.008l.046-.026.013-.007.034-.025v0l.049-.024,0-.005.049-.022.006-.011.036-.017,0-.01.033-.019.009-.007.043-.023.006-.008.043-.02,0-.013.047-.011,0-.016.049-.008.027-.016.008-.036h.008l.047-.027.045,0,.026-.021.013-.01.017-.025.034-.012.034-.023-.019-.007.044-.015.005-.014.018-.021.019.008.017-.018.013-.012.039-.042.007-.008.027-.022.014,0,.033-.046h0l.044-.033h0l.044-.033.044-.032.045-.032.044-.033.044-.032.045-.033.043-.032.045-.032.042-.032.043-.035.045-.033.045-.032.042-.033.043-.034.045-.034h0l.043-.033h0l.042-.033.043-.034.045-.034.042-.034.044-.034.042-.034.043-.036.044-.033.043-.034.043-.034.042-.035.042-.035.043-.034.042-.034.04-.035.045-.036.04-.033.042-.036.04-.035.042-.036.043-.034.042-.037.041-.036.041-.035.042-.036h0l0,0v0Zm7.7-4.737.034-.074.034-.077.034-.077.034-.077.032-.077.034-.077.032-.075.032-.079.033-.076.033-.077.03-.078.033-.078.031-.077.032-.076.03-.079.03-.08.03-.077.03-.079.03-.079.03-.079.029-.078.029-.079.029-.079.028-.08.028-.079.028-.078.028-.08.028-.081.027-.077.027-.08.027-.081.026-.081.027-.08.027-.08.023-.082.026-.08.026-.08.023-.082.025-.082.024-.081.022-.081.023-.082.023-.08.023-.082.021-.082.024-.082.022-.083.02-.081.022-.083.021-.081v0l.021-.082.02-.081h0l.02-.082.02-.084.02-.082h0l.019-.082.019-.083.019-.083.019-.083.019-.084.017-.083v0l.018-.083.018-.083.017-.083v0c-1.178-3.025-2.566-6.577-3.731-9.495v0c.03.079.045.255.068.334a6.619,6.619,0,0,1,.161.907l0,.094,0,.031c.055.322.095.651.133.987l.013.141,0,.025.015.165,0,.011v.022l.007.054,0,.042,0,0,0,.025v.008l0,.033v.006l0,.027,0,.024v.009l0,.05,0,.04v.012l0,.033v.017l.006.086v.005l0,.028,0,.023v.012l0,.033v.006l0,.028,0,.024v.012l0,.034v.006h0l0,.049v.013l0,.033v.007l0,.03v.021l0,.032v.051l0,.022v.052l0,.031v.035l0,.035v.071l0,.036v.108l0,.034v.037l0,.035h0l0,.177v.151l0,0v.11a21.173,21.173,0,0,1-.5,4.668c0,.021,0,.013.013.03h0q1.037,2.667,2.071,5.339m-5.592,2.3,1.508,3.961a11.6,11.6,0,0,0,2.3-3.006l-.387-1.024-.029-.069-.03-.075-.031-.086-.006-.013-.142-.38-.014-.033-1.1-2.879-.091-.024-.027.06-.03.058-.027.057-.029.057-.03.06-.027.058-.029.056-.03.059-.03.057-.03.056-.03.058-.029.059-.029.056-.031.056-.029.058-.032.057-.03.056-.031.058-.031.057-.032.057-.03.055-.032.057-.032.057-.031.055-.033.057-.032.056-.032.055-.032.057-.032.055-.034.056-.032.055-.032.055h0l-.032.056-.034.055-.033.053-.033.055-.034.057-.034.053-.034.055-.034.054h0l-.034.053-.033.055-.035.055-.034.053h0l-.034.054-.036.052-.034.053-.036.055-.034.053-.038.052-.035.054-.036.052-.036.054-.037.052-.036.054-.038.052-.036.052-.037.052-.037.051-.039.053-.036.052-.037.051h0Z" transform="translate(-272.892 -409.994)" fill="#fff"/>
      </g>
      <g id="Group_15" data-name="Group 15" transform="translate(0 0)" clip-path="url(#clip-path)">
        <path id="Path_30" data-name="Path 30" d="M164.415,329.363a20.74,20.74,0,0,1-1.417,4.11q2.862,7.52,0,0a20.809,20.809,0,0,1-27.322,10.2,20.071,20.071,0,0,1-3.4-1.925l1.257-3.256a17.208,17.208,0,0,0,3.356,2.031,22.562,22.562,0,0,0,7.267,1.585,17.427,17.427,0,0,0,17.424-17.428,14.5,14.5,0,0,0-1.029-5.238c-3.486-9.079-7.008-18.148-10.485-27.233a9.933,9.933,0,0,0-3.59-4.836,6.513,6.513,0,0,1,.763-.045,6.319,6.319,0,0,1,5.763,3.5,5.277,5.277,0,0,1,.249.623l6.477,16.612,4.619,11.834a9.485,9.485,0,0,1,.54,2.518,20.325,20.325,0,0,1-.469,6.953m.29,8.6c1.645,4.342,3.284,8.675,4.624,12.2h-3.423l-3.5-9.2a18.922,18.922,0,0,0,2.3-3m-1.8,12.2h-3.573l-1.93-4.932c1-.645,1.866-1.366,2.8-2.1-.09-.233,2.066,5.383,2.7,7.034m5.242-20.588,8.058,20.588h-3.719l-6-15.466h0a37.03,37.03,0,0,0,1.66-5.122m-35.876,12.167-3.247,8.421h-3.529l16.75-43.795-1.607-4.176c-6,16.05-11.973,31.972-18.111,47.971h-3.439l21.669-57.307,11.35,29.353a6.746,6.746,0,0,1,.442,2.463,8.416,8.416,0,0,1-12.425,7.4,8,8,0,0,1-3.041-2.806l2.086-5.677a5,5,0,0,0,2.147,5.374,6.678,6.678,0,0,0,2.818.841,5.132,5.132,0,0,0,5.13-5.132,5.382,5.382,0,0,0-.521-2.133l-4.628-11.3,0,.006-4.562,11.289a10,10,0,0,0-.419,1.166l.031-.113-2.085,5.677-1.155,3-1.329,3.447-1.07,2.777Zm11.873-5.884a11.192,11.192,0,0,0,11.191-11.193,9.069,9.069,0,0,0-.6-3.321c-3.681-9.623-7.155-19.352-11.048-28.9a3.012,3.012,0,0,0-2.86-1.977,2.98,2.98,0,0,0-2.868,2.021c-7.309,19.29-14.618,38.466-22.1,57.677h-3.743q11.44-29.284,22.7-58.622a5.243,5.243,0,0,1,.249-.627,6.5,6.5,0,0,1,11.525,0,5.764,5.764,0,0,1,.248.624c3.66,9.6,7.428,19.161,11.086,28.759a12.107,12.107,0,0,1,.813,4.368,14.6,14.6,0,0,1-20.84,13.2,14.2,14.2,0,0,1-3.3-2.153l1.329-3.447a11.1,11.1,0,0,0,3.2,2.408,13.4,13.4,0,0,0,5.018,1.187" transform="translate(-108.459 -287.327)" fill="#fff"/>
      </g>
      <g id="Group_16" data-name="Group 16" transform="translate(0 0)" clip-path="url(#clip-path)">
        <path id="Path_31" data-name="Path 31" d="M94.753,626.1V614.289h7.233v2.591h-4.1v2.045h3.86v2.53H97.89v4.64ZM107.9,614.289h3.25V626.1H107.9Zm9.936,11.806V614.289h3.22v9.049h4V626.1Zm13.99,0v-9.014h-2.644v-2.792h8.506v2.792H135.05V626.1Zm11.523,0V614.289h7.233v2.591h-4.1v2.045h3.862v2.53h-3.862v2h4.1V626.1h-7.233Zm13.446,0V614.289h3.363a13.646,13.646,0,0,1,2.752.185,3.559,3.559,0,0,1,1.346.606,3.174,3.174,0,0,1,.976,1.232,3.882,3.882,0,0,1,.344,1.658,3.51,3.51,0,0,1-.674,2.227,3.276,3.276,0,0,1-1.964,1.14l3.216,4.758h-3.634l-2.707-4.62v4.62H156.8Zm3.017-6.228h.6a2.57,2.57,0,0,0,1.518-.355,1.287,1.287,0,0,0,.478-1.11,1.558,1.558,0,0,0-.448-1.262,2.351,2.351,0,0,0-1.5-.374h-.642Z" transform="translate(-94.754 -545.377)" fill="#fff"/>
      </g>
      <g id="Group_17" data-name="Group 17" transform="translate(0 0)" clip-path="url(#clip-path-4)">
        <line id="Line_6" data-name="Line 6" y2="81.566" transform="translate(89.205 -0.28)" fill="none" stroke="#000" stroke-miterlimit="10" stroke-width="2"/>
      </g>
    </g>
    <text id="WE_MAKE_FILTERS" data-name="WE 
MAKE
FILTERS" transform="translate(186.521 282.453)" fill="#fff" font-size="25" font-family="SegoeUI-Bold, Segoe UI" font-weight="700"><tspan x="0" y="0">WE </tspan><tspan x="0" y="30">MAKE</tspan><tspan x="0" y="60">FILTERS</tspan></text>
  </g>
</svg>
